<svg width="79" height="141" viewBox="0 0 79 141" fill="none" xmlns="http://www.w3.org/2000/svg">
<path d="M52.3496 2.5V18.9893C66.2351 23.3832 76.5 34.8459 76.5 48.667V51.167H57.7002V48.667C57.7002 45.7991 55.9653 42.8382 52.627 40.4854C49.3122 38.1492 44.6496 36.6113 39.5 36.6113C34.3504 36.6113 29.6878 38.1492 26.373 40.4854C23.0347 42.8382 21.2998 45.7991 21.2998 48.667C21.2999 50.2725 21.6524 51.4822 22.2793 52.4873C22.9205 53.5154 23.9543 54.4971 25.5703 55.4648C28.6904 57.3331 33.4833 58.8721 40.3672 60.6572L41.7715 61.0176L41.793 61.0234C49.0158 62.928 57.6523 65.1805 64.4404 69.6602C71.4278 74.2714 76.4999 81.2681 76.5 92.333C76.5 106.154 66.235 117.616 52.3496 122.01V138.5H26.6504V122.01C12.765 117.616 2.5 106.154 2.5 92.333V89.833H21.2998V92.333C21.2998 95.2009 23.0347 98.1618 26.373 100.515C29.6878 102.851 34.3504 104.389 39.5 104.389C44.6496 104.389 49.3122 102.851 52.627 100.515C55.9653 98.1618 57.7002 95.2009 57.7002 92.333C57.7001 90.7275 57.3476 89.5178 56.7207 88.5127C56.0795 87.4846 55.0457 86.5029 53.4297 85.5352C50.1017 83.5423 44.8705 81.9242 37.2285 79.9824L37.207 79.9766C29.9842 78.072 21.3477 75.8195 14.5596 71.3398C7.57221 66.7286 2.5001 59.7319 2.5 48.667C2.5 34.8459 12.7649 23.3832 26.6504 18.9893V2.5H52.3496Z" stroke="url(#paint0_linear_732_17156)" stroke-width="5"/>
<defs>
<linearGradient id="paint0_linear_732_17156" x1="18.5536" y1="21.375" x2="94.1935" y2="74.4962" gradientUnits="userSpaceOnUse">
<stop stop-color="#71389A"/>
<stop offset="1" stop-color="#CB84FF"/>
</linearGradient>
</defs>
</svg>
