<svg width="110" height="130" viewBox="0 0 110 130" fill="none" xmlns="http://www.w3.org/2000/svg">
<path d="M29.4839 113.584C27.6337 108.527 26.0523 103.379 24.7396 98.1402C23.4326 92.9015 22.4792 87.5901 21.8795 82.2062L10.7615 89.0217C10.0034 89.5248 9.43191 90.1006 9.04716 90.7489C8.66242 91.3973 8.47288 92.1182 8.47854 92.9118V119.653C8.47854 120.151 8.66808 120.501 9.04716 120.703C9.42625 120.905 9.83645 120.905 10.2778 120.703L29.4839 113.584ZM53.3323 9.52304C44.8001 18.5274 38.7007 27.8196 35.0343 37.3997C31.368 46.9798 29.5348 57.4364 29.5348 68.7697C29.5348 76.8508 30.3127 84.6181 31.8687 92.0716C33.4246 99.525 35.4757 106.395 38.0218 112.681H71.9698C74.5159 106.4 76.5669 99.5302 78.1228 92.0716C79.6788 84.6129 80.4568 76.8456 80.4568 68.7697C80.4568 57.4364 78.6236 46.9798 74.9572 37.3997C71.2908 27.8196 65.1915 18.5248 56.6592 9.51525C56.3424 9.22479 56.0736 9.00954 55.853 8.86949C55.6266 8.72426 55.3409 8.65165 54.9958 8.65165C54.6506 8.65165 54.3649 8.72426 54.1386 8.86949C53.9123 9.01473 53.6435 9.22998 53.3323 9.51525M54.9958 69.89C51.4143 69.89 48.3985 68.7645 45.9486 66.5134C43.4931 64.2675 42.2653 61.5029 42.2653 58.2197C42.2653 54.9364 43.4931 52.1718 45.9486 49.9259C48.4042 47.68 51.4199 46.5545 54.9958 46.5493C58.5716 46.5441 61.5873 47.6696 64.0429 49.9259C66.4985 52.1718 67.7263 54.9364 67.7263 58.2197C67.7263 61.5029 66.4985 64.2675 64.0429 66.5134C61.5873 68.7593 58.5716 69.8849 54.9958 69.89ZM80.5077 113.732L99.7137 120.851C100.149 121.053 100.56 121.027 100.944 120.773C101.323 120.524 101.513 120.151 101.513 119.653V93.0752C101.513 92.2764 101.321 91.5295 100.936 90.8345C100.557 90.1343 99.9853 89.5352 99.2215 89.0373L88.112 82.214C87.5123 87.5979 86.5561 92.9352 85.2434 98.2257C83.9364 103.511 82.3578 108.675 80.5077 113.732ZM59.9437 1.84392C69.8622 10.9831 77.1751 21.1623 81.8826 32.3814C86.59 43.6006 88.9438 56.0049 88.9438 69.5944C88.9438 70.1909 88.972 70.8133 89.0286 71.4617C89.0852 72.11 89.0569 72.7843 88.9438 73.4845L103.669 82.5796C105.638 83.7052 107.185 85.2094 108.311 87.0922C109.437 88.975 110 90.9668 110 93.0674V123.644C110 125.874 108.982 127.617 106.945 128.872C104.902 130.127 102.738 130.335 100.452 129.495L76.2642 120.462H33.5661L9.37816 129.347C7.09233 130.187 4.95643 129.98 2.97047 128.724C0.984515 127.469 -0.00563389 125.729 2.41108e-05 123.504V92.9196C2.41108e-05 90.8241 0.534706 88.8324 1.60407 86.9444C2.67343 85.0616 4.1926 83.5574 6.16158 82.4318L21.0478 73.3289V69.5944C21.0478 56.0049 23.4015 43.6006 28.109 32.3814C32.8108 21.1623 40.1237 10.9831 50.0478 1.84392C50.7098 1.19557 51.4737 0.726157 52.3393 0.435694C53.205 0.145231 54.0905 0 54.9958 0C55.901 0 56.7865 0.145231 57.6522 0.435694C58.5179 0.726157 59.2817 1.20075 59.9437 1.84392Z" fill="url(#paint0_linear_732_17157)"/>
<defs>
<linearGradient id="paint0_linear_732_17157" x1="21.6071" y1="16.25" x2="100.829" y2="105.629" gradientUnits="userSpaceOnUse">
<stop stop-color="#71389A"/>
<stop offset="1" stop-color="#CB84FF"/>
</linearGradient>
</defs>
</svg>
