<svg width="124" height="133" viewBox="0 0 124 133" fill="none" xmlns="http://www.w3.org/2000/svg">
<path d="M95.0679 0C93.9717 0 92.9204 0.435457 92.1453 1.21058C91.3702 1.98569 90.9347 3.03698 90.9347 4.13316C90.9347 5.22934 91.3702 6.28063 92.1453 7.05574C92.9204 7.83086 93.9717 8.26632 95.0679 8.26632H109.889L70.2689 47.8868L48.3962 26.0058C48.0123 25.6209 47.5562 25.3155 47.0541 25.1072C46.5519 24.8988 46.0136 24.7916 45.47 24.7916C44.9263 24.7916 44.388 24.8988 43.8859 25.1072C43.3837 25.3155 42.9276 25.6209 42.5437 26.0058L1.2121 67.3374C0.436006 68.1135 -2.58596e-08 69.1661 0 70.2637C2.58596e-08 71.3613 0.436006 72.4139 1.2121 73.19C1.9882 73.9661 3.04081 74.4021 4.13838 74.4021C5.23595 74.4021 6.28856 73.9661 7.06466 73.19L45.47 34.7764L67.3426 56.6573C67.7266 57.0423 68.1827 57.3476 68.6848 57.556C69.187 57.7644 69.7253 57.8716 70.2689 57.8716C70.8126 57.8716 71.3509 57.7644 71.853 57.556C72.3552 57.3476 72.8113 57.0423 73.1952 56.6573L115.734 14.1106V28.9321C115.734 30.0283 116.169 31.0796 116.944 31.8547C117.719 32.6298 118.771 33.0653 119.867 33.0653C120.963 33.0653 122.014 32.6298 122.789 31.8547C123.565 31.0796 124 30.0283 124 28.9321V4.13316C124 3.03698 123.565 1.98569 122.789 1.21058C122.014 0.435457 120.963 0 119.867 0H95.0679ZM103.334 57.8642C102.238 57.8642 101.187 58.2997 100.412 59.0748C99.6365 59.8499 99.201 60.9012 99.201 61.9974V128.128C99.201 129.224 99.6365 130.275 100.412 131.051C101.187 131.826 102.238 132.261 103.334 132.261C104.43 132.261 105.482 131.826 106.257 131.051C107.032 130.275 107.467 129.224 107.467 128.128V61.9974C107.467 60.9012 107.032 59.8499 106.257 59.0748C105.482 58.2997 104.43 57.8642 103.334 57.8642ZM37.2037 74.3969C36.1075 74.3969 35.0562 74.8323 34.2811 75.6074C33.506 76.3826 33.0705 77.4338 33.0705 78.53V128.128C33.0705 129.224 33.506 130.275 34.2811 131.051C35.0562 131.826 36.1075 132.261 37.2037 132.261C38.2998 132.261 39.3511 131.826 40.1262 131.051C40.9014 130.275 41.3368 129.224 41.3368 128.128V78.53C41.3368 77.4338 40.9014 76.3826 40.1262 75.6074C39.3511 74.8323 38.2998 74.3969 37.2037 74.3969ZM66.1358 95.0627C66.1358 93.9665 66.5712 92.9152 67.3463 92.1401C68.1215 91.365 69.1727 90.9295 70.2689 90.9295C71.3651 90.9295 72.4164 91.365 73.1915 92.1401C73.9666 92.9152 74.4021 93.9665 74.4021 95.0627V128.128C74.4021 129.224 73.9666 130.275 73.1915 131.051C72.4164 131.826 71.3651 132.261 70.2689 132.261C69.1727 132.261 68.1215 131.826 67.3463 131.051C66.5712 130.275 66.1358 129.224 66.1358 128.128V95.0627ZM0.00522077 103.329C0.00522077 102.233 0.440678 101.182 1.2158 100.406C1.99091 99.6313 3.0422 99.1958 4.13838 99.1958C5.23456 99.1958 6.28585 99.6313 7.06096 100.406C7.83608 101.182 8.27154 102.233 8.27154 103.329V128.128C8.27154 129.224 7.83608 130.275 7.06096 131.051C6.28585 131.826 5.23456 132.261 4.13838 132.261C3.0422 132.261 1.99091 131.826 1.2158 131.051C0.440678 130.275 0.00522077 129.224 0.00522077 128.128V103.329Z" fill="url(#paint0_linear_732_17158)"/>
<defs>
<linearGradient id="paint0_linear_732_17158" x1="24.3571" y1="16.5326" x2="103.563" y2="115.545" gradientUnits="userSpaceOnUse">
<stop stop-color="#71389A"/>
<stop offset="1" stop-color="#CB84FF"/>
</linearGradient>
</defs>
</svg>
