<svg width="431" height="380" viewBox="0 0 431 380" fill="none" xmlns="http://www.w3.org/2000/svg">
<path d="M210.72 380C323.072 380 414.151 367.02 414.151 351.009C414.151 334.997 323.072 322.018 210.72 322.018C98.3682 322.018 7.28906 334.997 7.28906 351.009C7.28906 367.02 98.3682 380 210.72 380Z" fill="url(#paint0_linear_738_16526)"/>
<path opacity="0.5" d="M210.72 380C323.072 380 414.151 367.02 414.151 351.009C414.151 334.997 323.072 322.018 210.72 322.018C98.3682 322.018 7.28906 334.997 7.28906 351.009C7.28906 367.02 98.3682 380 210.72 380Z" fill="white"/>
<path d="M420.295 241.217C416.886 242.12 413.815 244 411.459 246.625C409.4 248.825 407.608 251.262 406.121 253.883C405.116 255.542 404.282 257.261 403.478 259C402.955 260.136 402.553 261.553 402.06 262.85C401.347 264.006 400.633 265.192 400.05 266.298C402.181 258.608 409.097 244.454 409.187 240.433C409.328 236.05 405.166 242.564 402.794 251.49C401.468 256.539 400.461 261.666 399.778 266.841C399.537 267.303 399.326 267.735 399.135 268.147C398.703 269.042 397.969 270.56 396.994 272.55C399.135 266.016 399.909 258.266 398.622 257.301C396.753 255.914 396.079 259.311 396.089 265.604C395.906 270.098 395.166 274.551 393.888 278.863C392.712 281.185 391.395 283.749 389.987 286.453C391.465 281.748 392.319 274.973 393.124 269.896C394.3 262.508 393.797 260.206 391.405 263.754C389.012 267.303 389.394 272.45 389.997 278.743C390.2 282.765 389.471 286.78 387.866 290.474C386.067 293.892 384.157 297.43 382.227 300.908C383.864 297.344 384.9 293.532 385.293 289.629C386.127 281.095 385.031 273.254 383.051 275.476C381.071 277.697 382.247 283.638 381.986 290.866C381.842 295.254 381.348 299.624 380.508 303.934L379.905 305C380.699 301.329 380.91 297.557 380.528 293.821C380.92 292.394 380.779 291.479 380.307 291.047C380.236 289.438 380.367 287.026 379.684 285.789C377.955 282.703 376.065 286.855 376.045 288.493C376.046 289.748 376.134 291.001 376.306 292.243C375.633 292.869 375.05 293.586 374.577 294.374C374.316 294.816 374.044 295.299 373.753 295.832C373.753 295.319 373.813 294.766 373.833 294.274C373.924 292.881 373.632 291.491 372.989 290.253C374.027 288.18 374.774 285.975 375.21 283.698C375.412 282.945 375.359 282.146 375.059 281.427C374.96 281.204 374.817 281.004 374.639 280.837C374.462 280.671 374.253 280.541 374.025 280.455C373.797 280.369 373.555 280.329 373.311 280.337C373.068 280.345 372.828 280.401 372.607 280.502C372.5 280.553 372.396 280.61 372.295 280.673C369.018 282.412 368.143 286.594 367.761 289.951C367.401 292.847 366.816 295.71 366.012 298.516C365.339 301.039 364.746 303.321 364.364 304.909C364.103 303.215 363.748 301.537 363.298 299.883C362.926 298.506 362.574 297.179 362.233 295.862C361.918 291.205 362.829 286.546 364.876 282.351C368.757 274.37 371.561 270.61 368.897 270.479C366.233 270.349 362.303 274.5 361.75 281.075C361.335 285.058 361.251 289.07 361.499 293.067C360.644 290.052 359.8 287.126 358.925 284.191C358.249 280.95 358.415 277.589 359.408 274.43C361.237 269.012 366.706 259.351 363.831 260.146C360.956 260.94 357.498 266.489 357.106 272.4C357.002 275.488 357.34 278.575 358.111 281.567C357.488 279.517 356.818 277.386 356.101 275.174C355.799 274.169 355.477 273.163 355.166 272.158C355.178 271.977 355.15 271.795 355.085 271.625C354.685 268.572 355.236 265.468 356.664 262.739C359.418 257.793 364.535 253.541 361.519 252.405C358.503 251.269 353.949 259.311 353.678 263.332C353.617 264.862 353.739 266.394 354.04 267.896L353.668 266.961C353.014 264.649 352.381 262.367 351.828 260.347C351.709 257.363 352.309 254.395 353.577 251.692C356.271 245.519 359.689 238.473 356.201 240.262C353.386 241.719 350.351 250.033 350.944 257.06C350.712 256.135 350.491 255.351 350.32 254.707C349.868 250.686 349.004 241.217 350.32 235.608C351.185 231.848 352.602 228.279 353.035 224.409C353.122 223.98 353.09 223.535 352.944 223.123C351.999 220.79 348.923 225.334 348.461 226.078C346.582 229.071 345.621 232.548 345.696 236.08C345.699 239.091 346.056 242.09 346.762 245.017C347.191 246.886 347.71 248.736 348.32 250.566C348.702 251.742 349.386 253.059 349.908 254.335C350.17 255.672 350.461 257.029 350.773 258.246C347.084 251.108 342.409 236.04 339.796 232.974C336.911 229.687 338.308 237.337 342.63 245.429C345.116 250.051 347.889 254.513 350.934 258.789C351.074 259.291 351.215 259.794 351.356 260.186C351.647 261.131 352.15 262.749 352.793 264.87C349.858 258.668 345.174 252.435 343.575 252.606C341.273 252.868 343.103 255.813 347.395 260.407C350.309 263.814 352.791 267.569 354.784 271.585C355.507 274.098 356.302 276.853 357.116 279.788C354.975 275.345 350.974 269.806 348.069 265.554C343.887 259.351 341.947 258.004 342.62 262.226C343.294 266.448 347.104 269.937 351.838 274.149C354.716 276.966 356.91 280.404 358.252 284.201C359.257 287.92 360.262 291.811 361.268 295.681C360.033 291.954 358.192 288.455 355.819 285.327C350.592 278.501 344.44 273.525 344.51 276.491C344.58 279.456 349.486 283.015 354.251 288.443C357.142 291.74 359.754 295.27 362.062 298.998C362.162 299.38 362.253 299.772 362.343 300.154C360.212 296.244 356.804 293.057 353.497 290.102C352.331 289.036 350.572 286.795 349.074 286.312C345.716 285.247 347.164 289.569 348.27 290.775C351.858 294.696 356.915 297.118 360.232 301.25C361.483 302.803 362.603 304.457 363.58 306.196C363.811 307.553 363.982 308.819 364.122 310.006C362.849 308.799 361.509 307.66 360.101 306.588C356.08 303.864 353.698 300.114 350.572 296.535C349.637 295.47 348.049 294.143 346.551 294.073C344.42 293.982 343.786 296.214 344.42 297.973C346.882 305.221 356.151 305.542 361.589 309.312C362.581 309.947 363.499 310.692 364.323 311.534C364.555 313.771 364.615 316.022 364.504 318.269H352.039V323.466H355.739L358.754 341.962H383.674L386.69 323.466H390.389V318.269H371.702C372.556 317.203 373.471 316.138 374.396 314.921L378.337 315.042C378.337 315.042 392.038 315.635 397.064 312.901C402.09 310.166 397.607 307.573 392.792 308.97C387.977 310.368 378.528 314.6 376.437 314.6L374.667 314.549C375.673 313.273 376.678 311.956 377.563 310.609C381.335 309.661 385.045 308.479 388.67 307.07C392.601 305.512 397.205 304.256 400.552 301.612C401.203 301.183 401.697 300.556 401.96 299.823C402.113 299.356 402.075 298.848 401.854 298.409C401.634 297.97 401.249 297.636 400.784 297.48C400.676 297.444 400.565 297.417 400.452 297.4C396.863 296.395 393.365 298.888 390.852 301.079C388.64 302.952 386.287 304.652 383.815 306.166C381.594 307.533 379.603 308.819 378.256 309.694C379.261 308.216 380.166 306.739 380.94 305.301C381.614 304.035 382.267 302.828 382.88 301.652C385.84 298.05 389.685 295.279 394.038 293.61C402.322 290.413 406.916 289.589 405.096 287.669C403.277 285.749 397.517 286.101 392.631 290.534C389.602 293.161 386.798 296.036 384.247 299.129C385.705 296.314 387.072 293.62 388.429 290.886C390.156 288.052 392.578 285.706 395.466 284.07C400.492 281.376 411.067 278.039 408.444 276.662C405.82 275.285 399.487 276.963 395.184 281.025C392.997 283.213 391.135 285.705 389.656 288.423C390.601 286.483 391.566 284.483 392.581 282.392C393.013 281.467 393.486 280.522 393.968 279.537C394.069 279.386 394.179 279.245 394.27 279.084C396.063 276.579 398.588 274.69 401.497 273.676C406.835 271.937 413.56 272.319 412.093 269.404C410.625 266.489 401.819 269.283 398.874 272.048C397.791 273.133 396.833 274.337 396.019 275.636C396.149 275.335 396.28 275.013 396.401 274.691C397.466 272.56 398.532 270.429 399.597 268.66C401.537 266.39 404.001 264.627 406.775 263.523C412.957 260.859 420.275 258.035 416.496 256.959C413.48 256.094 405.538 260.095 401.196 265.644L402.342 263.513C404.754 260.246 410.585 252.737 415.41 249.51C418.607 247.369 422.075 245.7 425.01 243.167C425.332 242.926 425.594 242.612 425.774 242.252C426.558 239.799 421.24 241.046 420.295 241.217ZM364.525 305.884C365.329 304.658 366.746 302.396 368.314 299.491C368.797 300.815 369.347 302.113 369.963 303.381C368.515 306.397 367.188 308.95 366.424 309.614L365.097 310.78C365.007 309.191 364.776 307.563 364.545 305.924L364.525 305.884ZM373.572 314.519C372.599 315.812 371.552 317.047 370.435 318.218H365.61C365.54 316.208 365.399 313.805 365.168 311.182L368.133 308.568C368.133 308.568 369.43 307.503 371.149 305.784C371.992 307.441 372.646 309.188 373.099 310.991C373.419 312.168 373.592 313.38 373.612 314.6L373.572 314.519ZM377.593 304.256C377.451 306.248 377.141 308.226 376.668 310.166C375.914 311.323 375.17 312.368 374.466 313.363C374.406 311.574 373.924 308.337 373.873 308.116C373.542 306.667 373.36 305.188 373.33 303.703C374.75 302.242 376.092 300.709 377.351 299.109C377.637 300.822 377.735 302.561 377.643 304.296L377.593 304.256Z" fill="#263238"/>
<path d="M385.1 44.9534V240.212C385.1 245.238 381.35 249.259 376.696 249.259H23.0311C18.3868 249.259 14.6172 245.238 14.6172 240.212V44.9534C14.6172 39.9272 18.3868 35.9062 23.0311 35.9062H376.726C381.38 35.9163 385.1 39.9574 385.1 44.9534Z" fill="white" stroke="#263238" stroke-width="0.620871" stroke-linecap="round" stroke-linejoin="round"/>
<path d="M116.698 70.1133H34.2683C30.7762 70.1133 27.9453 72.9442 27.9453 76.4363V215.431C27.9453 218.923 30.7762 221.754 34.2683 221.754H116.698C120.19 221.754 123.021 218.923 123.021 215.431V76.4363C123.021 72.9442 120.19 70.1133 116.698 70.1133Z" fill="url(#paint1_linear_738_16526)"/>
<path d="M63.6175 103.791C63.6175 106.676 62.762 109.496 61.1593 111.895C59.5565 114.293 57.2785 116.163 54.6132 117.267C51.948 118.371 49.0152 118.66 46.1858 118.097C43.3564 117.534 40.7574 116.145 38.7175 114.105C36.6776 112.065 35.2884 109.466 34.7256 106.637C34.1628 103.807 34.4516 100.875 35.5556 98.2093C36.6596 95.544 38.5291 93.266 40.9278 91.6633C43.3265 90.0605 46.1465 89.2051 49.0314 89.2051C50.9472 89.2038 52.8445 89.5801 54.6148 90.3127C56.3851 91.0452 57.9936 92.1196 59.3483 93.4743C60.703 94.829 61.7773 96.4375 62.5099 98.2077C63.2424 99.978 63.6188 101.875 63.6175 103.791Z" fill="white" stroke="#263238" stroke-width="0.620871" stroke-linecap="round" stroke-linejoin="round"/>
<path d="M108.753 95.4062H78.3047V98.2913H108.753V95.4062Z" fill="#263238"/>
<path d="M112.473 102.344H78.3047V105.229H112.473V102.344Z" fill="#263238"/>
<path d="M108.753 109.279H78.3047V112.164H108.753V109.279Z" fill="#263238"/>
<path d="M114.433 116.205H78.3047V119.09H114.433V116.205Z" fill="#263238"/>
<path d="M107.086 135.436H43.7452C40.775 135.436 38.3672 137.843 38.3672 140.814V153.842C38.3672 156.812 40.775 159.22 43.7452 159.22H107.086C110.056 159.22 112.464 156.812 112.464 153.842V140.814C112.464 137.843 110.056 135.436 107.086 135.436Z" fill="white" stroke="#263238" stroke-width="0.620871" stroke-linecap="round" stroke-linejoin="round"/>
<path d="M107.086 167.129H43.7452C40.775 167.129 38.3672 169.537 38.3672 172.507V185.535C38.3672 188.505 40.775 190.913 43.7452 190.913H107.086C110.056 190.913 112.464 188.505 112.464 185.535V172.507C112.464 169.537 110.056 167.129 107.086 167.129Z" fill="white" stroke="#263238" stroke-width="0.620871" stroke-linecap="round" stroke-linejoin="round"/>
<path d="M272.352 69.6836V230.975" stroke="#263238" stroke-width="0.620871" stroke-linecap="round" stroke-linejoin="round"/>
<path d="M385.1 44.3419V57.4101H14.6172V44.3419C14.6172 42.1095 15.5033 39.9683 17.0809 38.3888C18.6586 36.8093 20.7986 35.9206 23.0311 35.918H376.726C378.953 35.926 381.086 36.8176 382.656 38.3972C384.226 39.9767 385.105 42.1148 385.1 44.3419Z" fill="#263238"/>
<path d="M39.9535 50.0086C41.8134 50.0086 43.3211 48.5009 43.3211 46.641C43.3211 44.7812 41.8134 43.2734 39.9535 43.2734C38.0936 43.2734 36.5859 44.7812 36.5859 46.641C36.5859 48.5009 38.0936 50.0086 39.9535 50.0086Z" fill="#FEBC2E"/>
<path d="M58.8836 46.641C58.8836 47.307 58.6861 47.9581 58.316 48.5119C57.946 49.0657 57.4201 49.4973 56.8047 49.7522C56.1894 50.0071 55.5123 50.0738 54.859 49.9439C54.2058 49.8139 53.6057 49.4932 53.1348 49.0222C52.6638 48.5513 52.3431 47.9512 52.2131 47.298C52.0832 46.6447 52.1499 45.9676 52.4048 45.3523C52.6597 44.737 53.0913 44.211 53.6451 43.841C54.1989 43.4709 54.85 43.2734 55.516 43.2734C56.4091 43.2734 57.2657 43.6282 57.8972 44.2598C58.5288 44.8913 58.8836 45.7479 58.8836 46.641Z" fill="#28C840"/>
<path d="M74.2351 46.641C74.2351 47.307 74.0376 47.9581 73.6676 48.5119C73.2976 49.0657 72.7716 49.4973 72.1563 49.7522C71.5409 50.0071 70.8638 50.0738 70.2106 49.9439C69.5573 49.8139 68.9573 49.4932 68.4863 49.0222C68.0154 48.5513 67.6946 47.9512 67.5647 47.298C67.4348 46.6447 67.5015 45.9676 67.7563 45.3523C68.0112 44.737 68.4429 44.211 68.9966 43.841C69.5504 43.4709 70.2015 43.2734 70.8676 43.2734C71.7607 43.2734 72.6173 43.6282 73.2488 44.2598C73.8803 44.8913 74.2351 45.7479 74.2351 46.641Z" fill="#FF5F57"/>
<path d="M367.562 84.6602H286.68V87.3442H367.562V84.6602Z" fill="url(#paint2_linear_738_16526)"/>
<path d="M325.743 93.0332H286.68V95.7172H325.743V93.0332Z" fill="url(#paint3_linear_738_16526)"/>
<path d="M349.206 101.408H286.68V104.092H349.206V101.408Z" fill="url(#paint4_linear_738_16526)"/>
<path d="M342.531 109.541H286.68V112.456H342.531V109.541Z" fill="url(#paint5_linear_738_16526)"/>
<path d="M340.782 118.154H286.68V120.838H340.782V118.154Z" fill="url(#paint6_linear_738_16526)"/>
<path d="M321.833 126.529H286.68V129.213H321.833V126.529Z" fill="url(#paint7_linear_738_16526)"/>
<path opacity="0.2" d="M367.562 84.6602H286.68V87.3442H367.562V84.6602Z" fill="black"/>
<path opacity="0.2" d="M325.743 93.0332H286.68V95.7172H325.743V93.0332Z" fill="black"/>
<path opacity="0.2" d="M349.206 101.408H286.68V104.092H349.206V101.408Z" fill="black"/>
<path opacity="0.2" d="M342.531 109.541H286.68V112.456H342.531V109.541Z" fill="black"/>
<path opacity="0.2" d="M340.782 118.154H286.68V120.838H340.782V118.154Z" fill="black"/>
<path opacity="0.2" d="M321.833 126.529H286.68V129.213H321.833V126.529Z" fill="black"/>
<path d="M49.0299 111.542C53.6546 111.542 57.4036 107.793 57.4036 103.169C57.4036 98.5439 53.6546 94.7949 49.0299 94.7949C44.4053 94.7949 40.6562 98.5439 40.6562 103.169C40.6562 107.793 44.4053 111.542 49.0299 111.542Z" fill="#263238"/>
<path d="M57.3938 115.763C54.8699 117.508 51.8602 118.413 48.7924 118.35C45.7245 118.287 42.7547 117.259 40.3047 115.411C41.6819 112.647 44.3257 108.374 47.6832 108.374C51.8851 108.314 54.75 110.164 57.3938 115.763Z" fill="#263238"/>
<path d="M361.868 41.9883H281.187C278.883 41.9883 277.016 43.856 277.016 46.16V47.1251C277.016 49.4291 278.883 51.2968 281.187 51.2968H361.868C364.172 51.2968 366.04 49.4291 366.04 47.1251V46.16C366.04 43.856 364.172 41.9883 361.868 41.9883Z" fill="white"/>
<path d="M282.289 43.5762V49.487" stroke="#263238" stroke-width="0.620871" stroke-linecap="round" stroke-linejoin="round"/>
<path d="M107.125 199.803H86.9395C84.7465 199.803 82.9688 201.58 82.9688 203.773V208.87C82.9688 211.063 84.7465 212.841 86.9395 212.841H107.125C109.318 212.841 111.095 211.063 111.095 208.87V203.773C111.095 201.58 109.318 199.803 107.125 199.803Z" fill="url(#paint8_linear_738_16526)"/>
<path d="M368.543 199.992H293.461V160.646" stroke="#263238" stroke-width="0.620871" stroke-linecap="round" stroke-linejoin="round"/>
<path d="M296.5 183.766L299.727 190.974L316.665 168.557L320.204 179.373L326.899 175.613L342.369 190.974L353.92 180.318L358.383 185.012L366.083 169.874" stroke="#263238" stroke-width="0.620871" stroke-linecap="round" stroke-linejoin="round"/>
<path d="M291.712 197.518H286.273V199.98H291.712V197.518Z" fill="url(#paint9_linear_738_16526)"/>
<path d="M291.712 188.512H286.273V190.975H291.712V188.512Z" fill="url(#paint10_linear_738_16526)"/>
<path d="M291.712 179.494H286.273V181.957H291.712V179.494Z" fill="url(#paint11_linear_738_16526)"/>
<path d="M291.712 170.479H286.273V172.941H291.712V170.479Z" fill="url(#paint12_linear_738_16526)"/>
<path d="M291.712 161.471H286.273V163.934H291.712V161.471Z" fill="url(#paint13_linear_738_16526)"/>
<path d="M330.125 201.973V217.504H332.548V201.973H330.125Z" fill="url(#paint14_linear_738_16526)"/>
<path d="M338.75 201.973V217.504H341.173V201.973H338.75Z" fill="url(#paint15_linear_738_16526)"/>
<path d="M347.383 201.983V217.514H349.805V201.983H347.383Z" fill="url(#paint16_linear_738_16526)"/>
<path d="M356.008 201.983V217.514H358.43V201.983H356.008Z" fill="url(#paint17_linear_738_16526)"/>
<path d="M364.633 201.983V217.514H367.055V201.983H364.633Z" fill="url(#paint18_linear_738_16526)"/>
<path d="M321.281 201.983V217.514H323.704V201.983H321.281Z" fill="url(#paint19_linear_738_16526)"/>
<path d="M312.438 201.983V217.514H314.86V201.983H312.438Z" fill="url(#paint20_linear_738_16526)"/>
<path d="M303.578 201.973V217.504H306.001V201.973H303.578Z" fill="url(#paint21_linear_738_16526)"/>
<path d="M294.734 201.983V217.514H297.157V201.983H294.734Z" fill="url(#paint22_linear_738_16526)"/>
<path d="M225.928 76.748C221.913 76.748 218.062 78.343 215.223 81.1821C212.384 84.0212 210.789 87.8719 210.789 91.887C210.789 95.9021 212.384 99.7528 215.223 102.592C218.062 105.431 221.913 107.026 225.928 107.026C227.916 107.066 229.893 106.715 231.745 105.991C233.597 105.267 235.288 104.186 236.723 102.809C238.157 101.431 239.306 99.785 240.104 97.9637C240.902 96.1424 241.333 94.1817 241.374 92.1936C241.414 90.2055 241.062 88.229 240.339 86.3768C239.615 84.5247 238.534 82.8332 237.156 81.3989C235.779 79.9647 234.133 78.8158 232.311 78.0178C230.49 77.2198 228.529 76.7883 226.541 76.748H225.928Z" fill="#263238"/>
<path d="M235.526 87.0335C235.414 86.607 235.192 86.2176 234.881 85.9051C234.57 85.5925 234.182 85.3679 233.756 85.2542C232.188 84.832 225.915 84.832 225.915 84.832C225.915 84.832 219.643 84.832 218.085 85.2542C217.657 85.3673 217.268 85.5915 216.955 85.904C216.643 86.2166 216.418 86.6063 216.305 87.0335C215.752 90.2502 215.752 93.5376 216.305 96.7542C216.418 97.1815 216.643 97.5712 216.955 97.8837C217.268 98.1962 217.657 98.4204 218.085 98.5335C219.643 98.9557 225.915 98.9557 225.915 98.9557C225.915 98.9557 232.188 98.9557 233.756 98.5335C234.181 98.4179 234.568 98.1927 234.879 97.8805C235.189 97.5682 235.412 97.1798 235.526 96.7542C236.089 93.5385 236.089 90.2492 235.526 87.0335Z" fill="white"/>
<path d="M223.859 94.8751V88.9141L229.107 91.8896L223.859 94.8751Z" fill="#263238"/>
<path d="M166.282 76.7891C163.3 76.7891 160.384 77.6734 157.905 79.3303C155.425 80.9871 153.492 83.3421 152.351 86.0974C151.21 88.8526 150.911 91.8844 151.493 94.8094C152.075 97.7344 153.511 100.421 155.62 102.53C157.728 104.639 160.415 106.075 163.34 106.657C166.265 107.238 169.297 106.94 172.052 105.799C174.807 104.657 177.162 102.725 178.819 100.245C180.476 97.7653 181.36 94.85 181.36 91.8677C181.36 87.8686 179.772 84.0333 176.944 81.2055C174.116 78.3777 170.281 76.7891 166.282 76.7891Z" fill="#263238"/>
<path d="M163.75 101.578H167.661V91.7868H170.385L170.677 88.5097H167.661V86.6299C167.661 85.8558 167.812 85.5543 168.566 85.5543H170.677V82.1465H167.983C165.077 82.1465 163.76 83.4332 163.76 85.8759V88.4896H161.75V91.7968H163.76L163.75 101.578Z" fill="white"/>
<path d="M166.194 138.158C163.2 138.158 160.273 139.046 157.784 140.709C155.295 142.372 153.354 144.736 152.208 147.501C151.062 150.267 150.762 153.311 151.345 156.247C151.928 159.183 153.369 161.881 155.485 163.998C157.601 166.116 160.298 167.559 163.234 168.144C166.17 168.729 169.214 168.431 171.98 167.287C174.747 166.142 177.112 164.203 178.776 161.715C180.441 159.227 181.331 156.301 181.333 153.307C181.333 149.291 179.738 145.44 176.899 142.599C174.06 139.758 170.21 138.161 166.194 138.158Z" fill="#263238"/>
<path d="M166.194 146.071C168.547 146.071 168.828 146.071 169.763 146.071C170.323 146.08 170.877 146.185 171.401 146.382C171.782 146.521 172.125 146.745 172.407 147.036C172.7 147.318 172.926 147.661 173.07 148.041C173.265 148.566 173.367 149.12 173.372 149.68C173.372 150.614 173.372 150.926 173.372 153.238C173.372 155.55 173.372 155.882 173.372 156.807C173.368 157.366 173.266 157.921 173.07 158.445C172.93 158.827 172.703 159.171 172.407 159.45C172.126 159.744 171.782 159.971 171.401 160.114C170.875 160.303 170.322 160.405 169.763 160.416C168.828 160.416 168.547 160.416 166.194 160.416C163.842 160.416 163.561 160.416 162.626 160.416C162.067 160.407 161.513 160.305 160.987 160.114C160.606 159.971 160.263 159.744 159.982 159.45C159.686 159.171 159.459 158.827 159.318 158.445C159.123 157.921 159.021 157.366 159.017 156.807C159.017 155.882 158.957 155.6 158.957 153.238C158.957 150.876 158.957 150.614 159.017 149.68C159.022 149.12 159.124 148.566 159.318 148.041C159.459 147.659 159.686 147.315 159.982 147.036C160.263 146.745 160.607 146.521 160.987 146.382C161.512 146.188 162.066 146.083 162.626 146.071C163.561 146.071 163.832 146.071 166.194 146.071ZM166.194 144.482C163.802 144.482 163.49 144.482 162.555 144.482C161.835 144.489 161.121 144.619 160.444 144.864C159.86 145.091 159.329 145.436 158.886 145.88C158.443 146.323 158.097 146.853 157.871 147.438C157.615 148.124 157.476 148.847 157.459 149.579C157.459 150.524 157.398 150.826 157.398 153.218C157.398 155.61 157.398 155.912 157.459 156.857C157.474 157.589 157.613 158.313 157.871 158.998C158.093 159.59 158.437 160.128 158.88 160.578C159.323 161.028 159.856 161.38 160.444 161.612C161.131 161.862 161.854 162.002 162.585 162.024C163.53 162.024 163.832 162.024 166.224 162.024C168.617 162.024 168.919 162.024 169.863 162.024C170.595 162.002 171.317 161.862 172.005 161.612C172.589 161.383 173.12 161.036 173.563 160.591C174.006 160.146 174.352 159.614 174.578 159.028C174.836 158.343 174.975 157.619 174.99 156.887C174.99 155.952 175.051 155.651 175.051 153.248C175.051 150.846 175.051 150.554 174.99 149.609C174.974 148.881 174.834 148.16 174.578 147.478C174.353 146.891 174.008 146.359 173.565 145.914C173.122 145.469 172.59 145.121 172.005 144.895C171.319 144.639 170.595 144.5 169.863 144.482C168.919 144.482 168.617 144.482 166.224 144.482" fill="white"/>
<path d="M166.2 148.732C165.303 148.73 164.426 148.994 163.68 149.491C162.933 149.987 162.35 150.694 162.005 151.522C161.66 152.349 161.568 153.261 161.741 154.141C161.914 155.021 162.344 155.829 162.977 156.465C163.61 157.1 164.417 157.534 165.296 157.711C166.175 157.888 167.086 157.8 167.916 157.458C168.745 157.117 169.454 156.538 169.954 155.793C170.454 155.049 170.722 154.173 170.724 153.276C170.724 152.076 170.247 150.926 169.399 150.077C168.55 149.229 167.4 148.753 166.2 148.753M166.2 156.201C165.617 156.203 165.047 156.032 164.561 155.71C164.075 155.387 163.696 154.928 163.472 154.39C163.247 153.852 163.187 153.26 163.3 152.688C163.412 152.116 163.692 151.59 164.104 151.177C164.515 150.764 165.04 150.482 165.612 150.368C166.183 150.254 166.776 150.311 167.315 150.534C167.853 150.757 168.314 151.134 168.638 151.619C168.962 152.103 169.135 152.673 169.135 153.256C169.135 154.035 168.826 154.783 168.276 155.335C167.726 155.887 166.979 156.199 166.2 156.201Z" fill="white"/>
<path d="M226.496 167.323C224.601 167.324 222.724 166.952 220.974 166.228C219.223 165.503 217.632 164.441 216.292 163.101C214.953 161.761 213.89 160.171 213.166 158.42C212.441 156.669 212.069 154.793 212.07 152.898C212.07 149.072 213.59 145.403 216.295 142.698C219.001 139.992 222.67 138.473 226.496 138.473C230.321 138.473 233.99 139.992 236.696 142.698C239.401 145.403 240.921 149.072 240.921 152.898C240.922 154.793 240.55 156.669 239.825 158.42C239.101 160.171 238.038 161.761 236.699 163.101C235.359 164.441 233.768 165.503 232.017 166.228C230.267 166.952 228.39 167.324 226.496 167.323Z" fill="#263238" stroke="#263238" stroke-width="0.620871" stroke-linecap="round" stroke-linejoin="round"/>
<path d="M218.812 157.78C220.251 158.707 221.927 159.196 223.638 159.188C224.859 159.197 226.07 158.955 227.195 158.477C228.319 157.999 229.333 157.295 230.175 156.41C231.017 155.524 231.667 154.475 232.087 153.327C232.506 152.18 232.686 150.958 232.614 149.738C233.223 149.284 233.75 148.73 234.173 148.1C233.598 148.357 232.988 148.526 232.363 148.602C233.018 148.205 233.507 147.583 233.74 146.853C233.119 147.227 232.44 147.492 231.73 147.637C231.254 147.135 230.626 146.803 229.943 146.693C229.259 146.582 228.559 146.7 227.949 147.026C227.339 147.353 226.853 147.871 226.566 148.501C226.279 149.131 226.208 149.838 226.362 150.512C225.109 150.448 223.883 150.122 222.765 149.554C221.646 148.986 220.659 148.189 219.868 147.215C219.467 147.913 219.348 148.738 219.534 149.521C219.721 150.304 220.2 150.986 220.873 151.427C220.373 151.41 219.884 151.276 219.446 151.035C219.44 151.766 219.689 152.477 220.149 153.045C220.609 153.614 221.252 154.005 221.969 154.151C221.504 154.267 221.017 154.267 220.552 154.151C220.751 154.779 221.143 155.328 221.671 155.721C222.2 156.114 222.838 156.332 223.497 156.343C222.849 156.879 222.102 157.282 221.298 157.528C220.494 157.775 219.649 157.861 218.812 157.78Z" fill="white"/>
<path d="M226.003 202.686C223.006 202.684 220.076 203.57 217.584 205.234C215.091 206.897 213.148 209.262 212 212.03C210.852 214.798 210.55 217.845 211.134 220.784C211.717 223.723 213.159 226.423 215.277 228.543C217.395 230.663 220.095 232.106 223.034 232.692C225.973 233.277 229.019 232.978 231.788 231.831C234.556 230.685 236.923 228.743 238.588 226.252C240.253 223.76 241.142 220.831 241.142 217.835C241.142 213.819 239.547 209.967 236.708 207.126C233.869 204.285 230.019 202.688 226.003 202.686Z" fill="#263238"/>
<path d="M221.585 213.865H218.258V224.621H221.585V213.865Z" fill="white"/>
<path d="M219.909 212.457C220.307 212.457 220.695 212.339 221.026 212.118C221.357 211.897 221.614 211.583 221.766 211.215C221.919 210.848 221.958 210.444 221.881 210.054C221.803 209.664 221.612 209.306 221.331 209.024C221.049 208.743 220.691 208.552 220.301 208.474C219.911 208.397 219.507 208.436 219.14 208.589C218.772 208.741 218.458 208.998 218.237 209.329C218.016 209.66 217.898 210.048 217.898 210.446C217.898 210.979 218.11 211.491 218.487 211.868C218.864 212.245 219.376 212.457 219.909 212.457Z" fill="white"/>
<path d="M226.917 218.981C226.917 217.463 227.61 216.569 228.927 216.569C230.244 216.569 230.736 217.433 230.736 218.981V224.621H234.054V217.835C234.054 214.96 232.415 213.553 230.123 213.553C229.475 213.546 228.836 213.707 228.269 214.021C227.702 214.334 227.225 214.79 226.886 215.342V213.905H223.68V224.661H226.886L226.917 218.981Z" fill="white"/>
<path d="M166.186 232.913C162.171 232.913 158.32 231.318 155.481 228.479C152.642 225.64 151.047 221.789 151.047 217.774C151.047 213.758 152.642 209.906 155.48 207.066C158.319 204.225 162.17 202.628 166.186 202.625C170.204 202.625 174.057 204.221 176.898 207.062C179.739 209.903 181.335 213.756 181.335 217.774C181.332 221.79 179.735 225.641 176.894 228.479C174.054 231.318 170.202 232.913 166.186 232.913Z" fill="#263238"/>
<path d="M163.955 223.516C164.39 223.424 164.801 223.243 165.161 222.983C165.545 222.682 165.855 222.298 166.068 221.859C166.281 221.419 166.39 220.938 166.387 220.45C166.402 219.901 166.259 219.361 165.975 218.892C165.685 218.449 165.252 218.119 164.749 217.957C165.056 217.809 165.332 217.604 165.563 217.354C165.905 216.905 166.076 216.349 166.046 215.785C166.065 215.208 165.895 214.64 165.563 214.167C165.226 213.775 164.8 213.468 164.321 213.272C163.843 213.076 163.324 212.997 162.809 213.041H157.672V223.636H162.437C162.945 223.647 163.454 223.606 163.955 223.516ZM159.793 214.881H162.095C162.52 214.866 162.945 214.924 163.351 215.052C163.547 215.129 163.71 215.271 163.815 215.453C163.919 215.636 163.958 215.849 163.924 216.057C163.943 216.237 163.913 216.419 163.837 216.584C163.761 216.748 163.642 216.889 163.492 216.992C163.147 217.178 162.758 217.268 162.366 217.253H159.793V214.881ZM159.793 221.817V218.982H162.397C162.759 218.974 163.12 219.032 163.462 219.153C163.68 219.251 163.862 219.414 163.984 219.618C164.106 219.823 164.163 220.061 164.146 220.299C164.172 220.565 164.119 220.833 163.994 221.069C163.869 221.305 163.677 221.498 163.442 221.626C163.101 221.764 162.734 221.829 162.366 221.817H159.793Z" fill="white"/>
<path d="M168.142 222.962C168.915 223.614 169.895 223.971 170.906 223.967C171.462 224.011 172.021 223.93 172.543 223.732C173.064 223.534 173.535 223.223 173.922 222.821C174.323 222.449 174.589 221.954 174.676 221.414H172.575C172.473 221.616 172.333 221.797 172.163 221.947C171.836 222.2 171.43 222.328 171.017 222.309C170.619 222.318 170.225 222.218 169.881 222.017C169.614 221.834 169.399 221.585 169.256 221.295C169.113 221.004 169.048 220.682 169.067 220.358H174.786C174.807 219.838 174.787 219.317 174.726 218.8C174.621 218.182 174.374 217.597 174.002 217.091C173.668 216.586 173.197 216.186 172.645 215.935C172.062 215.681 171.432 215.554 170.796 215.563C170.279 215.543 169.763 215.629 169.281 215.816C168.799 216.003 168.36 216.286 167.991 216.649C167.258 217.511 166.896 218.628 166.986 219.755C166.919 220.343 166.988 220.938 167.189 221.494C167.389 222.05 167.715 222.553 168.142 222.962ZM169.609 217.735C169.773 217.581 169.966 217.462 170.177 217.384C170.388 217.307 170.612 217.272 170.836 217.282C171.284 217.27 171.721 217.424 172.062 217.715C172.232 217.873 172.368 218.064 172.462 218.277C172.555 218.489 172.604 218.719 172.605 218.951H169.067C169.116 218.499 169.306 218.073 169.609 217.735Z" fill="white"/>
<path d="M173.012 213.643H168.398V214.718H173.012V213.643Z" fill="white"/>
<path d="M182.548 71.0898H150.018C147.514 71.0898 145.484 73.1196 145.484 75.6235V108.153C145.484 110.657 147.514 112.687 150.018 112.687H182.548C185.052 112.687 187.081 110.657 187.081 108.153V75.6235C187.081 73.1196 185.052 71.0898 182.548 71.0898Z" stroke="url(#paint23_linear_738_16526)" stroke-width="0.620871" stroke-miterlimit="10"/>
<path d="M242.493 71.0898H209.963C207.459 71.0898 205.43 73.1196 205.43 75.6235V108.153C205.43 110.657 207.459 112.687 209.963 112.687H242.493C244.997 112.687 247.027 110.657 247.027 108.153V75.6235C247.027 73.1196 244.997 71.0898 242.493 71.0898Z" stroke="url(#paint24_linear_738_16526)" stroke-width="0.620871" stroke-miterlimit="10"/>
<path d="M182.548 132.018H150.018C147.514 132.018 145.484 134.047 145.484 136.551V169.081C145.484 171.585 147.514 173.615 150.018 173.615H182.548C185.052 173.615 187.081 171.585 187.081 169.081V136.551C187.081 134.047 185.052 132.018 182.548 132.018Z" stroke="url(#paint25_linear_738_16526)" stroke-width="0.620871" stroke-miterlimit="10"/>
<path d="M242.493 132.018H209.963C207.459 132.018 205.43 134.047 205.43 136.551V169.081C205.43 171.585 207.459 173.615 209.963 173.615H242.493C244.997 173.615 247.027 171.585 247.027 169.081V136.551C247.027 134.047 244.997 132.018 242.493 132.018Z" stroke="url(#paint26_linear_738_16526)" stroke-width="0.620871" stroke-miterlimit="10"/>
<path d="M182.548 195.961H150.018C147.514 195.961 145.484 197.991 145.484 200.495V233.024C145.484 235.528 147.514 237.558 150.018 237.558H182.548C185.052 237.558 187.081 235.528 187.081 233.024V200.495C187.081 197.991 185.052 195.961 182.548 195.961Z" stroke="url(#paint27_linear_738_16526)" stroke-width="0.620871" stroke-miterlimit="10"/>
<path d="M242.493 195.961H209.963C207.459 195.961 205.43 197.991 205.43 200.495V233.024C205.43 235.528 207.459 237.558 209.963 237.558H242.493C244.997 237.558 247.027 235.528 247.027 233.024V200.495C247.027 197.991 244.997 195.961 242.493 195.961Z" stroke="url(#paint28_linear_738_16526)" stroke-width="0.620871" stroke-miterlimit="10"/>
<path d="M241.383 179.383H212.07V188.279H241.383V179.383Z" fill="url(#paint29_linear_738_16526)"/>
<path d="M241.383 118.357H212.07V127.254H241.383V118.357Z" fill="url(#paint30_linear_738_16526)"/>
<path d="M180.852 118.357H151.539V127.254H180.852V118.357Z" fill="url(#paint31_linear_738_16526)"/>
<path d="M180.852 179.383H151.539V188.279H180.852V179.383Z" fill="url(#paint32_linear_738_16526)"/>
<path d="M241.383 179.383H212.07V188.279H241.383V179.383Z" fill="#263238"/>
<path d="M241.383 118.357H212.07V127.254H241.383V118.357Z" fill="#263238"/>
<path d="M180.852 118.357H151.539V127.254H180.852V118.357Z" fill="#263238"/>
<path d="M180.852 179.383H151.539V188.279H180.852V179.383Z" fill="#263238"/>
<path d="M43.3281 74.5684H108.749" stroke="#263238" stroke-width="0.620871" stroke-linecap="round" stroke-linejoin="round"/>
<path d="M128.985 332.936C128.985 332.936 131.327 340.978 130.543 345.893C130.543 345.893 129.608 354.076 128.532 358.439C127.457 362.801 126.361 365.827 132.503 367.556C138.645 369.285 153.734 365.616 157.272 366.852C160.811 368.089 180.956 365.325 183.962 363.998C186.967 362.671 187.44 353.473 180.946 350.276C174.452 347.079 128.985 332.936 128.985 332.936Z" fill="white"/>
<path d="M129.88 349.782C129.88 349.782 128.13 359.613 128.181 361.403C131.164 360.552 134.239 360.059 137.339 359.935C141.48 359.935 153.895 360.096 158.821 359.352C163.746 358.608 173.216 355.14 177.599 355.12C180.379 355.119 183.154 355.364 185.892 355.854C185.892 355.854 186.404 352.345 179.488 350.516C172.572 348.686 147.371 343.389 147.371 343.389C147.371 343.389 141.741 349.44 129.88 349.782Z" fill="url(#paint33_linear_738_16526)"/>
<path d="M217.672 345.1C217.672 345.1 222.085 342.305 226.237 344.014C230.389 345.723 245.176 345.763 245.176 345.763C245.176 345.763 256.877 344.296 261.863 346.769C266.849 349.242 267.402 352.971 267.01 355.876C266.618 358.781 259.259 366.532 249.599 366.934C239.938 367.336 239.144 365.165 231.203 364.742C231.203 364.742 220.547 364.069 217.471 362.732C214.395 361.395 210.374 360.289 210.495 354.539C210.615 348.789 217.672 345.1 217.672 345.1Z" fill="white"/>
<path d="M217.677 345.099C217.677 345.099 222.151 342.566 230.052 344.938C237.953 347.31 251.876 343.802 257.907 345.893C263.938 347.984 264.773 351.925 263.999 353.442C263.225 354.96 258.088 361.102 252.378 362.077C246.668 363.053 233.791 362.459 227.89 363.535C227.89 363.535 215.697 364.239 211.807 358.147C207.916 352.055 217.677 345.099 217.677 345.099Z" fill="url(#paint34_linear_738_16526)"/>
<path d="M51.7904 340.696L44.3516 326.833L64.6374 305.904L82.9428 308.086L93.3069 323.878L90.7234 332.935L51.7904 340.696Z" fill="#263238"/>
<path d="M36.4375 336.906C36.4375 336.906 37.0004 362.831 53.8081 365.636C70.6158 368.44 130.599 339.258 130.599 339.258C130.599 339.258 152.935 350.859 169.743 352.326C186.55 353.794 210.958 356.92 213.451 359.715C215.944 362.51 225.272 350.788 219.894 343.752C219.894 343.752 201.689 342.596 190.21 336.876C178.73 331.156 141.194 309.443 133.634 308.116C126.075 306.789 82.3671 327.507 82.3671 327.507L69.1984 330.312L36.4375 336.906Z" fill="#263238"/>
<path d="M86.1721 318.391L82.9453 308.087C82.9453 308.087 115.244 272.19 128.985 272.673C142.727 273.155 145.15 285.309 146.075 294.788C146.999 304.268 146.075 318.351 146.075 318.351L114.49 322.302L90.6756 332.937L86.1219 318.391" fill="#263238"/>
<path d="M121.211 312.368C121.211 312.931 122.317 296.003 127.172 288.434" stroke="white" stroke-width="0.620871" stroke-linecap="round" stroke-linejoin="round"/>
<path d="M132.329 288.15C131.986 291.494 132.006 294.864 132.389 298.203" stroke="white" stroke-width="0.620871" stroke-linecap="round" stroke-linejoin="round"/>
<path d="M130.014 349.44C130.014 349.44 127.632 361.895 128.285 364.519C129.12 367.846 137.825 367.916 140.298 368.027C145.766 368.258 151.225 367.715 156.693 367.806C160.855 367.876 165.007 368.318 169.179 368.258C173.356 368.346 177.5 367.491 181.302 365.755C184.498 364.157 186.589 361.885 186.187 358.166C185.655 353.26 184.016 352.023 177.241 351.249C170.465 350.475 146.551 343.328 146.551 343.328C146.551 343.328 142.841 349.842 130.014 349.44Z" stroke="#263238" stroke-width="0.620871" stroke-linecap="round" stroke-linejoin="round"/>
<path d="M130.016 349.443C130.949 344.798 130.949 340.014 130.016 335.37C128.428 328.212 140.742 334.445 140.742 334.445L147.367 341.592L146.553 343.321" stroke="#263238" stroke-width="0.620871" stroke-linecap="round" stroke-linejoin="round"/>
<path d="M128.987 365.806C128.958 365.093 129.178 364.393 129.609 363.824C130.04 363.256 130.655 362.855 131.349 362.69C133.139 362.218 135.31 362.539 137.129 362.589C140.276 362.69 143.422 362.821 146.569 362.851C157.164 362.941 167.447 359.584 178.033 359.182C179.892 359.111 183.22 358.619 184.868 359.775C187.522 361.635 182.627 365.284 180.787 366.027C176.278 367.65 171.503 368.407 166.714 368.259C160.501 367.968 150.77 368.008 146.559 368.058C142.347 368.108 134.445 369.717 128.987 365.806Z" fill="#263238"/>
<path d="M128.594 361.364C131.382 360.297 134.355 359.798 137.339 359.896C148.337 359.846 160.46 360.499 170.955 356.599C175.599 354.87 183.188 353.945 185.953 356.599" stroke="#263238" stroke-width="0.620871" stroke-linecap="round" stroke-linejoin="round"/>
<path d="M211.633 357.525C211.633 357.525 212.025 362.029 219.574 363.094C227.124 364.16 242.363 366.11 247.399 366.803C252.436 367.497 266.881 362.029 267.012 354.942C267.142 347.855 260.92 345.734 257.07 345.603C253.22 345.472 234.954 346.266 230.049 344.939C225.143 343.613 222.359 343.08 219.444 344.809" stroke="#263238" stroke-width="0.620871" stroke-linecap="round" stroke-linejoin="round"/>
<path d="M259.452 345.893C259.452 345.893 263.744 349.18 264.147 352.487C264.549 355.794 255.934 362.288 248.244 362.952C240.553 363.615 230.702 362.258 226.289 363.957" stroke="#263238" stroke-width="0.620871" stroke-linecap="round" stroke-linejoin="round"/>
<path d="M37.6413 239.559C37.6413 239.559 43.5119 243.912 46.3467 242.042C49.1815 240.173 55.3939 233.096 55.3939 233.096L64.3607 237.981L73.7697 268.189L80.0626 294.888L90.115 299.804V304.076C90.115 304.076 84.2042 310.198 78.0521 312.017C71.9 313.837 65.185 315.606 60.1185 314.42C55.0521 313.234 45.3415 279.679 45.3415 279.679L20.9141 243.982L37.6413 239.559Z" fill="#263238"/>
<path d="M117.277 309.764L73.75 298.706L117.277 278.541L158.814 289.136L117.277 309.764Z" fill="white" stroke="#263238" stroke-width="0.620871" stroke-linecap="round" stroke-linejoin="round"/>
<path d="M117.281 309.764L127.012 265.091L167.664 249.58L159.31 289.428L117.281 309.764Z" fill="white"/>
<path d="M73.75 298.194V300.637L117.538 312.368L159.749 291.218L159.98 288.785L117.538 309.312L73.75 298.194Z" fill="#263238"/>
<path d="M52.6172 236.27C57.5977 242.266 61.5237 249.064 64.2277 256.375C68.1281 267.624 75.4563 291.428 74.823 300.606L90.3339 288.543C88.8083 280.855 88.2444 273.008 88.6551 265.181C89.5096 253.721 90.3741 235.466 80.3518 233.968C69.8772 231.726 55.9043 228.309 55.9043 228.309L52.6172 236.27Z" fill="url(#paint35_linear_738_16526)"/>
<path d="M26.4009 231.789C26.4009 231.789 10.6689 240.213 8.71869 243.611C6.76852 247.008 5.63259 246.003 6.36642 251.371C7.10025 256.739 11.0006 274.24 11.9455 280.151C12.8904 286.062 16.0972 311.585 16.0972 311.585C18.9859 312.84 21.9753 313.849 25.0338 314.601L4.47656 341.471C4.47656 341.471 12.227 358.309 27.0342 358.832C41.8414 359.354 48.7073 344.949 55.1107 334.806C61.514 324.663 65.8064 310.952 65.8064 310.952L68.9126 310.379L67.7566 295.803L65.8064 296.105C65.8064 296.105 65.3943 275.779 56.7593 260.459C48.1242 245.139 26.4009 231.789 26.4009 231.789Z" fill="url(#paint36_linear_738_16526)"/>
<path opacity="0.2" d="M59.7627 230.873C59.7627 230.873 66.6084 234.371 67.312 238.774C68.0157 243.177 65.764 248.636 69.0511 250.787C72.3383 252.938 76.1984 253.39 78.0983 259.12C79.9982 264.85 79.4252 291.348 78.0983 295.892C76.7714 300.436 74.8815 295.892 74.8815 295.892L72.7001 284.312L68.2168 267.735L63.7836 255.29L59.7627 246.665L54.9375 236.844L59.7627 230.873Z" fill="black"/>
<path d="M68.6336 307.011C68.6336 307.011 75.037 307.855 77.1781 306.931C79.3193 306.006 81.1991 305.543 82.707 301.321C84.2148 297.099 87.0295 295.803 90.0553 295.602C93.0811 295.401 99.9268 294.064 101.113 290.766L98.1475 290.555C99.1675 290.266 100.109 289.751 100.902 289.047H99.6554C99.6554 289.047 93.7043 285.921 90.6685 285.167C87.6327 284.413 84.3857 283.629 81.5208 286.102C78.6559 288.575 77.1178 293.903 75.9517 295.29C74.7857 296.677 71.6996 298.396 67.6484 298.386L68.6336 307.011Z" fill="white"/>
<path d="M69.0469 307.041C69.0469 307.041 77.7322 308.559 80.6273 305.151C83.5224 301.743 82.5171 296.918 88.9507 295.802C95.3842 294.686 100.833 293.289 101.134 290.776C101.134 290.776 87.9052 289.519 85.0503 291.781" stroke="#263238" stroke-width="0.620871" stroke-linecap="round" stroke-linejoin="round"/>
<path d="M98.6164 290.474C99.5267 290.276 100.35 289.793 100.969 289.096L95.0277 287.961C92.9468 287.558 90.866 286.865 88.7148 286.955C86.7787 287.181 85.0093 288.16 83.7891 289.68" stroke="#263238" stroke-width="0.620871" stroke-linecap="round" stroke-linejoin="round"/>
<path d="M99.3366 288.461L92.4507 285.838C89.2842 284.631 85.5548 283.465 82.6697 285.245C81.5082 286.054 80.5374 287.107 79.8249 288.331C78.9946 289.619 78.2524 290.963 77.6033 292.352C77.1776 293.416 76.6312 294.428 75.9748 295.367C74.095 297.74 71.1898 298.333 68.1641 298.463" stroke="#263238" stroke-width="0.620871" stroke-linecap="round" stroke-linejoin="round"/>
<path d="M25.2344 231.788C25.2344 231.788 33.97 235.206 37.5989 239.559C37.5989 239.559 46.3546 245.51 49.9936 238.966C53.6325 232.421 54.0145 219.243 54.0145 219.243L57.4022 211.713L56.0954 191.518L46.626 177.294L37.6391 170.689L27.8782 189.528L16.5391 197.248L17.8358 218.358L25.2344 231.788Z" fill="white"/>
<path d="M43.5491 178.893C43.5491 178.893 43.9713 195.097 30.7825 201.068C30.7825 201.068 26.9425 220.741 39.6588 224.903C39.6588 224.903 41.8101 234.101 32.6724 235.568C20.8809 229.788 22.9617 223.606 22.9617 223.606L18.8905 206.185L17.5938 194.474L32.6724 182.642L43.5491 178.893Z" fill="url(#paint37_linear_738_16526)"/>
<path opacity="0.5" d="M43.5491 178.893C43.5491 178.893 43.9713 195.097 30.7825 201.068C30.7825 201.068 26.9425 220.741 39.6588 224.903C39.6588 224.903 41.8101 234.101 32.6724 235.568C20.8809 229.788 22.9617 223.606 22.9617 223.606L18.8905 206.185L17.5938 194.474L32.6724 182.642L43.5491 178.893Z" fill="white"/>
<path d="M53.8256 187.426C53.8256 187.426 54.3886 189.255 53.8256 194.724C53.2627 200.192 54.6097 207.179 52.8204 212.084C51.031 216.99 47.9952 224.469 39.6617 224.861C33.2684 224.861 26.5936 215.814 25.7693 209.873C25.7693 209.873 18.0591 206.254 18.9738 201.127C19.8886 196 24.8344 197.378 26.1312 201.127" stroke="#263238" stroke-width="0.620871" stroke-linecap="round" stroke-linejoin="round"/>
<path d="M46.8907 197.6C46.2476 200.618 46.3476 203.746 47.1822 206.717C47.4645 207.371 47.5177 208.1 47.333 208.788C47.1903 209.074 46.9788 209.321 46.7173 209.505C46.4559 209.689 46.1527 209.805 45.8352 209.843C45.2007 209.91 44.5593 209.856 43.9453 209.683" stroke="#263238" stroke-width="0.620871" stroke-linecap="round" stroke-linejoin="round"/>
<path d="M43.5458 213.191C43.5458 213.191 39.9471 214.306 37.6953 211.713" stroke="#263238" stroke-width="0.620871" stroke-linecap="round" stroke-linejoin="round"/>
<path d="M26.3988 231.787C28.6305 226.118 24.4688 209.119 24.4688 209.119" stroke="#263238" stroke-width="0.620871" stroke-linecap="round" stroke-linejoin="round"/>
<path d="M40.3095 194.764C40.3095 194.764 35.1124 190.24 32.6797 196.935" stroke="#263238" stroke-width="0.620871" stroke-linecap="round" stroke-linejoin="round"/>
<path d="M47.8281 194.472C48.2174 193.624 48.8419 192.905 49.6275 192.402C50.0261 192.161 50.4873 192.044 50.9526 192.065C51.4179 192.086 51.8664 192.246 52.2411 192.522" stroke="#263238" stroke-width="0.620871" stroke-linecap="round" stroke-linejoin="round"/>
<path d="M38.7395 202.977C39.217 202.977 39.604 202.103 39.604 201.026C39.604 199.949 39.217 199.076 38.7395 199.076C38.2621 199.076 37.875 199.949 37.875 201.026C37.875 202.103 38.2621 202.977 38.7395 202.977Z" fill="#263238"/>
<path d="M49.5571 200.163C49.5571 201.239 49.1751 202.113 48.6926 202.113C48.2101 202.113 47.8281 201.239 47.8281 200.163C47.8281 199.087 48.2101 198.213 48.6926 198.213C49.1751 198.213 49.5571 199.087 49.5571 200.163Z" fill="#263238"/>
<path d="M44.6396 223.566C44.6396 223.566 42.8503 227.145 45.7051 234.976" stroke="#263238" stroke-width="0.620871" stroke-linecap="round" stroke-linejoin="round"/>
<path d="M24.4666 198.212C24.4666 198.212 43.8879 191.014 43.5662 178.851C43.5662 178.851 46.8031 186.701 54.1012 190.753C54.1012 190.753 52.0103 179.635 49.5776 174.799C47.1449 169.964 32.6292 166.164 27.0702 167.341C21.5112 168.517 10.7953 170.748 8.57374 188.662C6.35215 206.575 8.57374 220.045 3.34647 227.233C-1.88079 234.42 -1.0967 246.845 6.49289 248.544C7.25713 246.174 8.5653 244.015 10.3128 242.241C13.0571 239.628 26.6681 232.048 26.6681 232.048C26.6681 232.048 27.2612 218.437 24.4867 209.118C24.4867 209.118 18.6764 207.329 18.9881 201.127C19.551 196.302 24.4666 198.212 24.4666 198.212Z" fill="#263238"/>
<path d="M48.9103 173.865C51.7472 176.775 54.1631 180.067 56.0878 183.646C60.2997 191.015 64.954 199.328 67.065 207.551C67.885 210.807 68.0468 214.194 67.5411 217.513C67.0353 220.833 65.8721 224.018 64.1197 226.882C63.5592 227.7 63.0683 228.565 62.652 229.465C62.2462 230.583 61.9893 231.749 61.888 232.933C61.5362 235.617 61.124 238.402 59.6564 240.684C58.1887 242.966 55.3539 244.584 52.7504 243.8C50.2129 242.773 48.1658 240.812 47.0305 238.321C45.02 232.843 43.7534 229.355 44.6381 223.585C44.6381 223.585 53.836 215.482 53.7657 206.164C53.6953 196.845 55.3539 190.422 51.5742 185.797C47.7945 181.173 48.9103 173.865 48.9103 173.865Z" fill="#263238"/>
<path d="M26.6542 232.049C26.6542 232.049 13.9077 238.704 8.72063 243.609C3.53357 248.515 8.22806 259.854 10.3793 271.354C12.5305 282.854 14.1992 293.811 16.0991 311.564C34.7363 320.229 52.2879 313.192 68.9146 310.337L67.7585 295.801C65.3359 295.932 52.6799 299.672 41.6222 296.404C35.9125 294.706 31.2582 297.179 27.3277 301.652" stroke="#263238" stroke-width="0.620871" stroke-linecap="round" stroke-linejoin="round"/>
<path d="M24.3125 297.792C29.9921 294.997 35.1289 293.771 40.3964 296.103" stroke="#263238" stroke-width="0.620871" stroke-linecap="round" stroke-linejoin="round"/>
<path d="M39.3068 295.671C36.0197 286.795 35.2155 276.511 33.6875 266.73" stroke="#263238" stroke-width="0.620871" stroke-linecap="round" stroke-linejoin="round"/>
<path d="M16.0938 251.369C23.0945 255.432 28.5391 261.715 31.5644 269.222" stroke="#263238" stroke-width="0.620871" stroke-linecap="round" stroke-linejoin="round"/>
<path d="M28.7656 257.994L31.329 262.92" stroke="#263238" stroke-width="0.620871" stroke-linecap="round" stroke-linejoin="round"/>
<path d="M26.3984 231.789C26.3984 231.789 51.7205 246.345 59.1794 265.445C66.6383 284.544 65.623 295.873 65.623 295.873" stroke="#263238" stroke-width="0.620871" stroke-linecap="round" stroke-linejoin="round"/>
<path d="M26.396 231.789C23.6919 237.599 26.205 244.385 30.0752 249.009C34.0962 253.834 40.6805 256.448 46.7824 257.403C47.4458 257.503 48.24 257.664 48.4611 258.297C48.5685 258.624 48.5685 258.976 48.4611 259.303C47.5464 262.318 44.7317 264.711 44.792 267.847C44.9004 269.136 45.2661 270.391 45.8676 271.536C49.2849 279.171 53.1346 286.605 57.3977 293.803" stroke="#263238" stroke-width="0.620871" stroke-linecap="round" stroke-linejoin="round"/>
<path opacity="0.5" d="M27.8726 174.309C26.7197 180.908 24.3324 187.231 20.8359 192.946" stroke="white" stroke-width="0.620871" stroke-linecap="round" stroke-linejoin="round"/>
<path opacity="0.5" d="M16.5289 177.295C12.89 185.789 14.619 195.49 14.237 204.728C13.8762 213.05 11.7446 221.2 7.98438 228.633" stroke="white" stroke-width="0.620871" stroke-linecap="round" stroke-linejoin="round"/>
<path d="M65.8042 310.941C65.8042 310.941 52.9974 345.592 40.6731 354.468C28.3488 363.345 14.6675 358.59 4.48438 341.471L25.0315 314.651" stroke="#263238" stroke-width="0.620871" stroke-linecap="round" stroke-linejoin="round"/>
<path d="M28.7266 315.695C30.6967 323.38 35.2417 330.157 41.6037 334.895" stroke="#263238" stroke-width="0.620871" stroke-linecap="round" stroke-linejoin="round"/>
<path d="M26.239 315.426C25.308 321.06 25.5925 326.829 27.0734 332.344" stroke="#263238" stroke-width="0.620871" stroke-linecap="round" stroke-linejoin="round"/>
<path d="M47.8281 228.842C47.8281 228.842 59.509 241.307 66.6262 262.92C73.7433 284.532 74.8289 296.404 74.8289 296.404" stroke="#263238" stroke-width="0.620871" stroke-linecap="round" stroke-linejoin="round"/>
<path d="M38.7422 240.433C38.7422 240.433 46.3016 245.459 50.0311 238.965C53.7605 232.471 51.0363 230.27 51.0363 230.27" stroke="#263238" stroke-width="0.620871" stroke-linecap="round" stroke-linejoin="round"/>
<path d="M49.3594 227.916C51.7217 227.534 54.0941 228.358 56.3056 229.263C58.9656 230.247 61.4501 231.652 63.664 233.425C65.8908 235.219 67.3532 237.791 67.7553 240.622C68.067 243.729 66.7501 247.166 68.3685 249.85C70.178 252.866 74.6714 253.138 76.7925 255.932C77.7118 257.363 78.2579 259.001 78.3807 260.697C79.7354 270.573 79.7793 280.585 78.5114 290.472" stroke="#263238" stroke-width="0.620871" stroke-linecap="round" stroke-linejoin="round"/>
<path d="M76.6641 246.746C79.3281 249.077 81.5544 251.865 83.2383 254.979C84.9228 258.128 85.3641 261.794 84.4748 265.253C84.0928 266.499 83.4696 267.675 83.168 268.932C82.8813 270.139 82.7097 271.371 82.6553 272.611L81.6501 285.679" stroke="#263238" stroke-width="0.620871" stroke-linecap="round" stroke-linejoin="round"/>
<path d="M52.6172 226.781C57.5529 228.259 62.4183 230.159 67.4445 231.234C72.4707 232.31 77.2255 232.581 82.0105 234.461C82.7179 234.716 83.3927 235.053 84.021 235.467C88.1324 238.342 88.1023 244.132 88.5647 248.535C89.972 261.955 86.2828 271.987 90.0524 284.945" stroke="#263238" stroke-width="0.620871" stroke-linecap="round" stroke-linejoin="round"/>
<path d="M64.6328 314.359C64.6328 314.359 77.2285 315.696 88.829 305.191" stroke="#263238" stroke-width="0.620871" stroke-linecap="round" stroke-linejoin="round"/>
<path opacity="0.5" d="M56.3929 242.321C54.0808 238.944 52.5026 234.852 53.1058 230.811C53.4978 228.187 54.7745 225.785 55.9204 223.413C57.5166 220.341 58.69 217.068 59.4086 213.682C60.1154 210.277 59.8221 206.741 58.5642 203.499C57.4889 201.244 56.1199 199.142 54.493 197.246" stroke="white" stroke-width="0.620871" stroke-linecap="round" stroke-linejoin="round"/>
<path d="M117.281 309.764L167.664 249.58L159.31 289.428L117.281 309.764Z" fill="#263238"/>
<path opacity="0.8" d="M117.281 309.764L167.664 249.58L159.31 289.428L117.281 309.764Z" fill="white"/>
<path d="M150.277 277.957C149.583 280.671 147.562 282.491 145.763 282.028C143.964 281.566 143.089 279.013 143.752 276.278C144.416 273.544 146.477 271.745 148.266 272.207C150.055 272.67 150.98 275.243 150.277 277.957Z" fill="#263238"/>
<path d="M117.281 309.764L127.012 265.091L167.664 249.58L159.31 289.428L117.281 309.764Z" stroke="#263238" stroke-width="0.620871" stroke-linecap="round" stroke-linejoin="round"/>
<path d="M115.633 308.8L125.163 264.418L166.337 248.938L167.855 249.319L127.012 265.092L117.281 309.765L115.633 308.8Z" fill="#263238"/>
<path opacity="0.2" d="M26.3979 231.789C26.3979 231.789 22.8192 241.651 30.077 249.009C37.3349 256.367 48.4629 258.307 48.4629 258.307V259.313C48.4629 259.313 43.6378 265.857 44.9949 269.224C46.3519 272.592 58.8169 297.281 58.8169 297.281L65.8536 296.105C65.9874 284.587 63.339 273.207 58.1334 262.931C49.3576 246.244 26.3979 231.789 26.3979 231.789Z" fill="black"/>
<path opacity="0.2" d="M22.9844 317.304C22.9844 317.304 23.487 324.602 26.2615 328.864C26.2615 328.864 26.5831 323.496 27.0255 318.761C27.0255 318.761 31.1369 329.276 39.2492 332.985C39.2492 332.985 34.4643 323.496 32.9162 318.761C32.9162 318.761 49.1911 321.656 64.9131 313.403V311.111C64.9131 311.111 40.6666 318.218 25.025 314.65L22.9844 317.304Z" fill="black"/>
<path opacity="0.2" d="M33.8552 268.188L43.9076 293.801L56.051 297.822L42.7013 297.309C42.7013 297.309 36.499 296.415 28.7285 300.607C28.7285 300.607 29.0803 298.345 32.2971 296.435C32.2971 296.435 31.1411 295.309 26.2656 296.887C28.5952 294.582 31.3189 292.713 34.3076 291.368L33.8552 268.188Z" fill="black"/>
<path opacity="0.2" d="M78.5623 248.252C76.1397 245.639 84.3425 252.535 85.4684 255.912C86.5942 259.29 86.6546 262.949 86.6344 266.497C86.6143 270.046 86.5339 273.685 87.4386 277.133C88.0418 279.435 89.3486 282.652 90.0623 284.924C90.0623 284.924 83.4579 284.009 81.6887 285.607L83.1664 268.9C83.1664 268.9 88.5645 259.109 78.5623 248.252Z" fill="black"/>
<path d="M101.141 290.767L118.3 282.172L122.03 283.006" stroke="#263238" stroke-width="0.620871" stroke-linecap="round" stroke-linejoin="round"/>
<path d="M116.872 305.905L86.5234 297.903L95.2389 294.516" stroke="#263238" stroke-width="0.620871" stroke-linecap="round" stroke-linejoin="round"/>
<path d="M121.612 285.387L93.3047 299.581" stroke="#263238" stroke-width="0.620871" stroke-linecap="round" stroke-linejoin="round"/>
<path d="M121.174 290.766L100.094 301.341" stroke="#263238" stroke-width="0.620871" stroke-linecap="round" stroke-linejoin="round"/>
<path d="M120.268 296.062L106.234 303.099" stroke="#263238" stroke-width="0.620871" stroke-linecap="round" stroke-linejoin="round"/>
<path d="M91.0625 295.418L118.395 302.505" stroke="#263238" stroke-width="0.620871" stroke-linecap="round" stroke-linejoin="round"/>
<path d="M98.8281 293.176L119.717 298.604" stroke="#263238" stroke-width="0.620871" stroke-linecap="round" stroke-linejoin="round"/>
<path d="M103.062 289.811L120.272 294.274" stroke="#263238" stroke-width="0.620871" stroke-linecap="round" stroke-linejoin="round"/>
<path d="M108.297 287.188L121.184 290.535" stroke="#263238" stroke-width="0.620871" stroke-linecap="round" stroke-linejoin="round"/>
<path d="M113.656 284.703L122.02 286.864" stroke="#263238" stroke-width="0.620871" stroke-linecap="round" stroke-linejoin="round"/>
<path d="M145.242 314.098C150.791 316.028 155.295 318.119 155.295 318.119" stroke="white" stroke-width="0.620871" stroke-linecap="round" stroke-linejoin="round"/>
<path d="M74.8281 326.66C74.8281 326.66 122.999 310.325 132.127 310.928C134.359 311.113 136.569 311.5 138.731 312.084" stroke="white" stroke-width="0.620871" stroke-linecap="round" stroke-linejoin="round"/>
<path d="M82.9453 323.988C84.9558 321.756 86.2123 320.6 87.3081 318.801" stroke="white" stroke-width="0.620871" stroke-linecap="round" stroke-linejoin="round"/>
<path d="M100.72 42.95V43.69H97.64V46.13H100.25V46.84H97.64V50H96.73V42.95H100.72ZM102.508 45.62C102.688 45.24 102.952 44.9467 103.298 44.74C103.645 44.5267 104.058 44.42 104.538 44.42V45.41H104.258C103.745 45.41 103.325 45.5433 102.998 45.81C102.672 46.07 102.508 46.5033 102.508 47.11V50H101.598V44.51H102.508V45.62ZM110.286 46.95C110.286 47.1433 110.273 47.31 110.246 47.45H105.856C105.876 48.0767 106.053 48.5467 106.386 48.86C106.726 49.1733 107.14 49.33 107.626 49.33C108.066 49.33 108.433 49.22 108.726 49C109.026 48.7733 109.21 48.4733 109.276 48.1H110.246C110.18 48.48 110.03 48.82 109.796 49.12C109.57 49.42 109.273 49.6533 108.906 49.82C108.54 49.9867 108.126 50.07 107.666 50.07C107.14 50.07 106.673 49.9567 106.266 49.73C105.86 49.5033 105.54 49.18 105.306 48.76C105.08 48.3333 104.966 47.8333 104.966 47.26C104.966 46.6867 105.08 46.1867 105.306 45.76C105.54 45.3333 105.86 45.0067 106.266 44.78C106.673 44.5533 107.14 44.44 107.666 44.44C108.2 44.44 108.663 44.5533 109.056 44.78C109.456 45.0067 109.76 45.31 109.966 45.69C110.18 46.07 110.286 46.49 110.286 46.95ZM109.366 47.01C109.386 46.6033 109.32 46.2633 109.166 45.99C109.013 45.7167 108.803 45.5133 108.536 45.38C108.27 45.2467 107.98 45.18 107.666 45.18C107.166 45.18 106.746 45.3367 106.406 45.65C106.066 45.9567 105.883 46.41 105.856 47.01H109.366ZM116.326 46.95C116.326 47.1433 116.313 47.31 116.286 47.45H111.896C111.916 48.0767 112.093 48.5467 112.426 48.86C112.766 49.1733 113.18 49.33 113.666 49.33C114.106 49.33 114.473 49.22 114.766 49C115.066 48.7733 115.25 48.4733 115.316 48.1H116.286C116.22 48.48 116.07 48.82 115.836 49.12C115.61 49.42 115.313 49.6533 114.946 49.82C114.58 49.9867 114.166 50.07 113.706 50.07C113.18 50.07 112.713 49.9567 112.306 49.73C111.9 49.5033 111.58 49.18 111.346 48.76C111.12 48.3333 111.006 47.8333 111.006 47.26C111.006 46.6867 111.12 46.1867 111.346 45.76C111.58 45.3333 111.9 45.0067 112.306 44.78C112.713 44.5533 113.18 44.44 113.706 44.44C114.24 44.44 114.703 44.5533 115.096 44.78C115.496 45.0067 115.8 45.31 116.006 45.69C116.22 46.07 116.326 46.49 116.326 46.95ZM115.406 47.01C115.426 46.6033 115.36 46.2633 115.206 45.99C115.053 45.7167 114.843 45.5133 114.576 45.38C114.31 45.2467 114.02 45.18 113.706 45.18C113.206 45.18 112.786 45.3367 112.446 45.65C112.106 45.9567 111.923 46.41 111.896 47.01H115.406ZM126.647 43.07V50H125.737V44.47L123.527 50H122.717L120.497 44.49V50H119.587V43.07H120.677L123.137 48.89L125.557 43.07H126.647ZM130.153 44.44C130.686 44.44 131.136 44.5733 131.503 44.84C131.876 45.1067 132.136 45.4633 132.283 45.91V44.51H133.193V50H132.283V48.6C132.136 49.0467 131.876 49.4033 131.503 49.67C131.136 49.9367 130.686 50.07 130.153 50.07C129.666 50.07 129.233 49.9567 128.853 49.73C128.473 49.5033 128.173 49.18 127.953 48.76C127.74 48.3333 127.633 47.8333 127.633 47.26C127.633 46.6867 127.74 46.1867 127.953 45.76C128.173 45.3333 128.473 45.0067 128.853 44.78C129.233 44.5533 129.666 44.44 130.153 44.44ZM130.413 45.25C129.853 45.25 129.403 45.43 129.063 45.79C128.73 46.1433 128.563 46.6333 128.563 47.26C128.563 47.8867 128.73 48.38 129.063 48.74C129.403 49.0933 129.853 49.27 130.413 49.27C130.773 49.27 131.093 49.1867 131.373 49.02C131.66 48.8533 131.883 48.62 132.043 48.32C132.203 48.0133 132.283 47.66 132.283 47.26C132.283 46.86 132.203 46.5067 132.043 46.2C131.883 45.8933 131.66 45.66 131.373 45.5C131.093 45.3333 130.773 45.25 130.413 45.25ZM135.351 45.62C135.531 45.24 135.795 44.9467 136.141 44.74C136.488 44.5267 136.901 44.42 137.381 44.42V45.41H137.101C136.588 45.41 136.168 45.5433 135.841 45.81C135.515 46.07 135.351 46.5033 135.351 47.11V50H134.441V44.51H135.351V45.62ZM141.089 50L138.989 47.53V50H138.079V42.6H138.989V46.9L141.059 44.51H142.169L139.709 47.24L142.229 50H141.089ZM147.88 46.95C147.88 47.1433 147.867 47.31 147.84 47.45H143.45C143.47 48.0767 143.647 48.5467 143.98 48.86C144.32 49.1733 144.734 49.33 145.22 49.33C145.66 49.33 146.027 49.22 146.32 49C146.62 48.7733 146.804 48.4733 146.87 48.1H147.84C147.774 48.48 147.624 48.82 147.39 49.12C147.164 49.42 146.867 49.6533 146.5 49.82C146.134 49.9867 145.72 50.07 145.26 50.07C144.734 50.07 144.267 49.9567 143.86 49.73C143.454 49.5033 143.134 49.18 142.9 48.76C142.674 48.3333 142.56 47.8333 142.56 47.26C142.56 46.6867 142.674 46.1867 142.9 45.76C143.134 45.3333 143.454 45.0067 143.86 44.78C144.267 44.5533 144.734 44.44 145.26 44.44C145.794 44.44 146.257 44.5533 146.65 44.78C147.05 45.0067 147.354 45.31 147.56 45.69C147.774 46.07 147.88 46.49 147.88 46.95ZM146.96 47.01C146.98 46.6033 146.914 46.2633 146.76 45.99C146.607 45.7167 146.397 45.5133 146.13 45.38C145.864 45.2467 145.574 45.18 145.26 45.18C144.76 45.18 144.34 45.3367 144 45.65C143.66 45.9567 143.477 46.41 143.45 47.01H146.96ZM151.491 49.2V50H150.811C150.251 50 149.831 49.8667 149.551 49.6C149.277 49.3333 149.141 48.8867 149.141 48.26V45.3H148.321V44.51H149.141V43.14H150.061V44.51H151.481V45.3H150.061V48.28C150.061 48.6333 150.124 48.8767 150.251 49.01C150.384 49.1367 150.611 49.2 150.931 49.2H151.491ZM152.241 42.9C152.241 42.7333 152.298 42.6 152.411 42.5C152.524 42.3933 152.674 42.34 152.861 42.34C153.048 42.34 153.198 42.3933 153.311 42.5C153.424 42.6 153.481 42.7333 153.481 42.9C153.481 43.0667 153.424 43.2033 153.311 43.31C153.198 43.41 153.048 43.46 152.861 43.46C152.674 43.46 152.524 43.41 152.411 43.31C152.298 43.2033 152.241 43.0667 152.241 42.9ZM153.311 44.51V50H152.401V44.51H153.311ZM157.464 44.42C158.104 44.42 158.621 44.6267 159.014 45.04C159.407 45.4467 159.604 46.0367 159.604 46.81V50H158.694V46.89C158.694 46.3433 158.554 45.9233 158.274 45.63C157.994 45.3367 157.614 45.19 157.134 45.19C156.634 45.19 156.234 45.3533 155.934 45.68C155.634 46 155.484 46.47 155.484 47.09V50H154.574V44.51H155.484V45.81C155.624 45.3633 155.871 45.02 156.224 44.78C156.584 44.54 156.997 44.42 157.464 44.42ZM163.05 44.44C163.583 44.44 164.033 44.5733 164.4 44.84C164.773 45.1067 165.033 45.4633 165.18 45.91V44.51H166.09V50.09C166.09 50.5967 165.983 51.0467 165.77 51.44C165.557 51.8333 165.257 52.14 164.87 52.36C164.483 52.58 164.033 52.69 163.52 52.69C162.78 52.69 162.177 52.51 161.71 52.15C161.243 51.7967 160.947 51.3167 160.82 50.71H161.72C161.827 51.0767 162.027 51.3633 162.32 51.57C162.62 51.7833 163.003 51.89 163.47 51.89C163.963 51.89 164.37 51.73 164.69 51.41C165.017 51.0967 165.18 50.6567 165.18 50.09V48.6C165.033 49.0467 164.773 49.4033 164.4 49.67C164.033 49.9367 163.583 50.07 163.05 50.07C162.563 50.07 162.13 49.9567 161.75 49.73C161.37 49.5033 161.07 49.18 160.85 48.76C160.637 48.3333 160.53 47.8333 160.53 47.26C160.53 46.6867 160.637 46.1867 160.85 45.76C161.07 45.3333 161.37 45.0067 161.75 44.78C162.13 44.5533 162.563 44.44 163.05 44.44ZM163.31 45.25C162.75 45.25 162.3 45.43 161.96 45.79C161.627 46.1433 161.46 46.6333 161.46 47.26C161.46 47.8867 161.627 48.38 161.96 48.74C162.3 49.0933 162.75 49.27 163.31 49.27C163.67 49.27 163.99 49.1867 164.27 49.02C164.557 48.8533 164.78 48.62 164.94 48.32C165.1 48.0133 165.18 47.66 165.18 47.26C165.18 46.86 165.1 46.5067 164.94 46.2C164.78 45.8933 164.557 45.66 164.27 45.5C163.99 45.3333 163.67 45.25 163.31 45.25ZM173.739 48.37H170.639L170.049 50H169.069L171.679 43.08H172.709L175.309 50H174.329L173.739 48.37ZM173.479 47.66L172.189 44.1L170.899 47.66H173.479ZM180.91 44.51V50H180V48.71C179.86 49.1567 179.61 49.5 179.25 49.74C178.897 49.9733 178.483 50.09 178.01 50.09C177.377 50.09 176.863 49.8867 176.47 49.48C176.077 49.0667 175.88 48.4767 175.88 47.71V44.51H176.79V47.62C176.79 48.1667 176.93 48.59 177.21 48.89C177.49 49.1833 177.87 49.33 178.35 49.33C178.85 49.33 179.25 49.17 179.55 48.85C179.85 48.5233 180 48.05 180 47.43V44.51H180.91ZM184.418 44.44C184.951 44.44 185.401 44.5733 185.768 44.84C186.141 45.1067 186.401 45.4633 186.548 45.91V42.6H187.458V50H186.548V48.6C186.401 49.0467 186.141 49.4033 185.768 49.67C185.401 49.9367 184.951 50.07 184.418 50.07C183.931 50.07 183.498 49.9567 183.118 49.73C182.738 49.5033 182.438 49.18 182.218 48.76C182.005 48.3333 181.898 47.8333 181.898 47.26C181.898 46.6867 182.005 46.1867 182.218 45.76C182.438 45.3333 182.738 45.0067 183.118 44.78C183.498 44.5533 183.931 44.44 184.418 44.44ZM184.678 45.25C184.118 45.25 183.668 45.43 183.328 45.79C182.995 46.1433 182.828 46.6333 182.828 47.26C182.828 47.8867 182.995 48.38 183.328 48.74C183.668 49.0933 184.118 49.27 184.678 49.27C185.038 49.27 185.358 49.1867 185.638 49.02C185.925 48.8533 186.148 48.62 186.308 48.32C186.468 48.0133 186.548 47.66 186.548 47.26C186.548 46.86 186.468 46.5067 186.308 46.2C186.148 45.8933 185.925 45.66 185.638 45.5C185.358 45.3333 185.038 45.25 184.678 45.25ZM188.546 42.9C188.546 42.7333 188.603 42.6 188.716 42.5C188.83 42.3933 188.98 42.34 189.166 42.34C189.353 42.34 189.503 42.3933 189.616 42.5C189.73 42.6 189.786 42.7333 189.786 42.9C189.786 43.0667 189.73 43.2033 189.616 43.31C189.503 43.41 189.353 43.46 189.166 43.46C188.98 43.46 188.83 43.41 188.716 43.31C188.603 43.2033 188.546 43.0667 188.546 42.9ZM189.616 44.51V50H188.706V44.51H189.616ZM193.499 49.2V50H192.819C192.259 50 191.839 49.8667 191.559 49.6C191.286 49.3333 191.149 48.8867 191.149 48.26V45.3H190.329V44.51H191.149V43.14H192.069V44.51H193.489V45.3H192.069V48.28C192.069 48.6333 192.133 48.8767 192.259 49.01C192.393 49.1367 192.619 49.2 192.939 49.2H193.499ZM200.42 50L198.58 47.12H197.59V50H196.68V42.95H199C199.8 42.95 200.4 43.1433 200.8 43.53C201.2 43.91 201.4 44.4167 201.4 45.05C201.4 45.6233 201.24 46.0867 200.92 46.44C200.6 46.7867 200.137 47.0033 199.53 47.09L201.45 50H200.42ZM197.59 46.46H198.92C199.954 46.46 200.47 46.0067 200.47 45.1C200.47 44.1933 199.954 43.74 198.92 43.74H197.59V46.46ZM207.36 46.95C207.36 47.1433 207.347 47.31 207.32 47.45H202.93C202.95 48.0767 203.127 48.5467 203.46 48.86C203.8 49.1733 204.214 49.33 204.7 49.33C205.14 49.33 205.507 49.22 205.8 49C206.1 48.7733 206.284 48.4733 206.35 48.1H207.32C207.254 48.48 207.104 48.82 206.87 49.12C206.644 49.42 206.347 49.6533 205.98 49.82C205.614 49.9867 205.2 50.07 204.74 50.07C204.214 50.07 203.747 49.9567 203.34 49.73C202.934 49.5033 202.614 49.18 202.38 48.76C202.154 48.3333 202.04 47.8333 202.04 47.26C202.04 46.6867 202.154 46.1867 202.38 45.76C202.614 45.3333 202.934 45.0067 203.34 44.78C203.747 44.5533 204.214 44.44 204.74 44.44C205.274 44.44 205.737 44.5533 206.13 44.78C206.53 45.0067 206.834 45.31 207.04 45.69C207.254 46.07 207.36 46.49 207.36 46.95ZM206.44 47.01C206.46 46.6033 206.394 46.2633 206.24 45.99C206.087 45.7167 205.877 45.5133 205.61 45.38C205.344 45.2467 205.054 45.18 204.74 45.18C204.24 45.18 203.82 45.3367 203.48 45.65C203.14 45.9567 202.957 46.41 202.93 47.01H206.44ZM211.381 44.44C211.867 44.44 212.301 44.5533 212.681 44.78C213.061 45.0067 213.357 45.3333 213.571 45.76C213.791 46.1867 213.901 46.6867 213.901 47.26C213.901 47.8333 213.791 48.3333 213.571 48.76C213.357 49.18 213.061 49.5033 212.681 49.73C212.301 49.9567 211.867 50.07 211.381 50.07C210.847 50.07 210.394 49.9367 210.021 49.67C209.654 49.3967 209.401 49.04 209.261 48.6V52.6H208.351V44.51H209.261V45.91C209.401 45.47 209.654 45.1167 210.021 44.85C210.394 44.5767 210.847 44.44 211.381 44.44ZM211.121 45.25C210.767 45.25 210.447 45.3333 210.161 45.5C209.874 45.66 209.651 45.8933 209.491 46.2C209.331 46.5067 209.251 46.86 209.251 47.26C209.251 47.66 209.331 48.0133 209.491 48.32C209.651 48.62 209.874 48.8533 210.161 49.02C210.447 49.1867 210.767 49.27 211.121 49.27C211.687 49.27 212.137 49.0933 212.471 48.74C212.811 48.38 212.981 47.8867 212.981 47.26C212.981 46.6333 212.811 46.1433 212.471 45.79C212.137 45.43 211.687 45.25 211.121 45.25ZM217.379 44.44C217.906 44.44 218.376 44.5533 218.789 44.78C219.209 45.0067 219.536 45.3333 219.769 45.76C220.009 46.1867 220.129 46.6867 220.129 47.26C220.129 47.8333 220.009 48.3333 219.769 48.76C219.536 49.18 219.209 49.5033 218.789 49.73C218.376 49.9567 217.906 50.07 217.379 50.07C216.852 50.07 216.379 49.9567 215.959 49.73C215.546 49.5033 215.219 49.18 214.979 48.76C214.739 48.3333 214.619 47.8333 214.619 47.26C214.619 46.6867 214.739 46.1867 214.979 45.76C215.219 45.3333 215.546 45.0067 215.959 44.78C216.379 44.5533 216.852 44.44 217.379 44.44ZM217.379 45.24C217.052 45.24 216.749 45.3133 216.469 45.46C216.196 45.6067 215.972 45.8333 215.799 46.14C215.632 46.44 215.549 46.8133 215.549 47.26C215.549 47.7 215.632 48.0733 215.799 48.38C215.972 48.68 216.196 48.9033 216.469 49.05C216.749 49.1967 217.052 49.27 217.379 49.27C217.706 49.27 218.006 49.1967 218.279 49.05C218.559 48.9033 218.782 48.68 218.949 48.38C219.122 48.0733 219.209 47.7 219.209 47.26C219.209 46.8133 219.122 46.44 218.949 46.14C218.782 45.8333 218.559 45.6067 218.279 45.46C218.006 45.3133 217.706 45.24 217.379 45.24ZM222.025 45.62C222.205 45.24 222.468 44.9467 222.815 44.74C223.161 44.5267 223.575 44.42 224.055 44.42V45.41H223.775C223.261 45.41 222.841 45.5433 222.515 45.81C222.188 46.07 222.025 46.5033 222.025 47.11V50H221.115V44.51H222.025V45.62ZM227.373 49.2V50H226.693C226.133 50 225.713 49.8667 225.433 49.6C225.159 49.3333 225.023 48.8867 225.023 48.26V45.3H224.203V44.51H225.023V43.14H225.943V44.51H227.363V45.3H225.943V48.28C225.943 48.6333 226.006 48.8767 226.133 49.01C226.266 49.1367 226.493 49.2 226.813 49.2H227.373Z" fill="#FAF5FF"/>
<defs>
<linearGradient id="paint0_linear_738_16526" x1="87.2084" y1="329.265" x2="94.7308" y2="399.645" gradientUnits="userSpaceOnUse">
<stop stop-color="#71389A"/>
<stop offset="1" stop-color="#CB84FF"/>
</linearGradient>
<linearGradient id="paint1_linear_738_16526" x1="46.6209" y1="89.0684" x2="138.23" y2="165.651" gradientUnits="userSpaceOnUse">
<stop stop-color="#71389A"/>
<stop offset="1" stop-color="#CB84FF"/>
</linearGradient>
<linearGradient id="paint2_linear_738_16526" x1="302.567" y1="84.9957" x2="302.649" y2="88.2887" gradientUnits="userSpaceOnUse">
<stop stop-color="#71389A"/>
<stop offset="1" stop-color="#CB84FF"/>
</linearGradient>
<linearGradient id="paint3_linear_738_16526" x1="294.353" y1="93.3687" x2="294.522" y2="96.6551" gradientUnits="userSpaceOnUse">
<stop stop-color="#71389A"/>
<stop offset="1" stop-color="#CB84FF"/>
</linearGradient>
<linearGradient id="paint4_linear_738_16526" x1="298.962" y1="101.744" x2="299.068" y2="105.035" gradientUnits="userSpaceOnUse">
<stop stop-color="#71389A"/>
<stop offset="1" stop-color="#CB84FF"/>
</linearGradient>
<linearGradient id="paint5_linear_738_16526" x1="297.65" y1="109.905" x2="297.79" y2="113.479" gradientUnits="userSpaceOnUse">
<stop stop-color="#71389A"/>
<stop offset="1" stop-color="#CB84FF"/>
</linearGradient>
<linearGradient id="paint6_linear_738_16526" x1="297.307" y1="118.49" x2="297.429" y2="121.78" gradientUnits="userSpaceOnUse">
<stop stop-color="#71389A"/>
<stop offset="1" stop-color="#CB84FF"/>
</linearGradient>
<linearGradient id="paint7_linear_738_16526" x1="293.585" y1="126.865" x2="293.773" y2="130.149" gradientUnits="userSpaceOnUse">
<stop stop-color="#71389A"/>
<stop offset="1" stop-color="#CB84FF"/>
</linearGradient>
<linearGradient id="paint8_linear_738_16526" x1="88.4936" y1="201.432" x2="93.4584" y2="215.713" gradientUnits="userSpaceOnUse">
<stop stop-color="#71389A"/>
<stop offset="1" stop-color="#CB84FF"/>
</linearGradient>
<linearGradient id="paint9_linear_738_16526" x1="287.342" y1="197.825" x2="288.262" y2="200.536" gradientUnits="userSpaceOnUse">
<stop stop-color="#71389A"/>
<stop offset="1" stop-color="#CB84FF"/>
</linearGradient>
<linearGradient id="paint10_linear_738_16526" x1="287.342" y1="188.82" x2="288.262" y2="191.53" gradientUnits="userSpaceOnUse">
<stop stop-color="#71389A"/>
<stop offset="1" stop-color="#CB84FF"/>
</linearGradient>
<linearGradient id="paint11_linear_738_16526" x1="287.342" y1="179.802" x2="288.262" y2="182.513" gradientUnits="userSpaceOnUse">
<stop stop-color="#71389A"/>
<stop offset="1" stop-color="#CB84FF"/>
</linearGradient>
<linearGradient id="paint12_linear_738_16526" x1="287.342" y1="170.786" x2="288.262" y2="173.497" gradientUnits="userSpaceOnUse">
<stop stop-color="#71389A"/>
<stop offset="1" stop-color="#CB84FF"/>
</linearGradient>
<linearGradient id="paint13_linear_738_16526" x1="287.342" y1="161.779" x2="288.262" y2="164.489" gradientUnits="userSpaceOnUse">
<stop stop-color="#71389A"/>
<stop offset="1" stop-color="#CB84FF"/>
</linearGradient>
<linearGradient id="paint14_linear_738_16526" x1="330.428" y1="214.453" x2="333.362" y2="214.11" gradientUnits="userSpaceOnUse">
<stop stop-color="#71389A"/>
<stop offset="1" stop-color="#CB84FF"/>
</linearGradient>
<linearGradient id="paint15_linear_738_16526" x1="339.053" y1="214.453" x2="341.987" y2="214.11" gradientUnits="userSpaceOnUse">
<stop stop-color="#71389A"/>
<stop offset="1" stop-color="#CB84FF"/>
</linearGradient>
<linearGradient id="paint16_linear_738_16526" x1="347.686" y1="214.463" x2="350.62" y2="214.12" gradientUnits="userSpaceOnUse">
<stop stop-color="#71389A"/>
<stop offset="1" stop-color="#CB84FF"/>
</linearGradient>
<linearGradient id="paint17_linear_738_16526" x1="356.311" y1="214.463" x2="359.245" y2="214.12" gradientUnits="userSpaceOnUse">
<stop stop-color="#71389A"/>
<stop offset="1" stop-color="#CB84FF"/>
</linearGradient>
<linearGradient id="paint18_linear_738_16526" x1="364.936" y1="214.463" x2="367.87" y2="214.12" gradientUnits="userSpaceOnUse">
<stop stop-color="#71389A"/>
<stop offset="1" stop-color="#CB84FF"/>
</linearGradient>
<linearGradient id="paint19_linear_738_16526" x1="321.584" y1="214.463" x2="324.518" y2="214.12" gradientUnits="userSpaceOnUse">
<stop stop-color="#71389A"/>
<stop offset="1" stop-color="#CB84FF"/>
</linearGradient>
<linearGradient id="paint20_linear_738_16526" x1="312.74" y1="214.463" x2="315.674" y2="214.12" gradientUnits="userSpaceOnUse">
<stop stop-color="#71389A"/>
<stop offset="1" stop-color="#CB84FF"/>
</linearGradient>
<linearGradient id="paint21_linear_738_16526" x1="303.881" y1="214.453" x2="306.815" y2="214.11" gradientUnits="userSpaceOnUse">
<stop stop-color="#71389A"/>
<stop offset="1" stop-color="#CB84FF"/>
</linearGradient>
<linearGradient id="paint22_linear_738_16526" x1="295.037" y1="214.463" x2="297.971" y2="214.12" gradientUnits="userSpaceOnUse">
<stop stop-color="#71389A"/>
<stop offset="1" stop-color="#CB84FF"/>
</linearGradient>
<linearGradient id="paint23_linear_738_16526" x1="153.655" y1="76.2895" x2="178.168" y2="108.973" gradientUnits="userSpaceOnUse">
<stop stop-color="#71389A"/>
<stop offset="1" stop-color="#CB84FF"/>
</linearGradient>
<linearGradient id="paint24_linear_738_16526" x1="213.601" y1="76.2895" x2="238.113" y2="108.973" gradientUnits="userSpaceOnUse">
<stop stop-color="#71389A"/>
<stop offset="1" stop-color="#CB84FF"/>
</linearGradient>
<linearGradient id="paint25_linear_738_16526" x1="153.655" y1="137.217" x2="178.168" y2="169.901" gradientUnits="userSpaceOnUse">
<stop stop-color="#71389A"/>
<stop offset="1" stop-color="#CB84FF"/>
</linearGradient>
<linearGradient id="paint26_linear_738_16526" x1="213.601" y1="137.217" x2="238.113" y2="169.901" gradientUnits="userSpaceOnUse">
<stop stop-color="#71389A"/>
<stop offset="1" stop-color="#CB84FF"/>
</linearGradient>
<linearGradient id="paint27_linear_738_16526" x1="153.655" y1="201.161" x2="178.168" y2="233.844" gradientUnits="userSpaceOnUse">
<stop stop-color="#71389A"/>
<stop offset="1" stop-color="#CB84FF"/>
</linearGradient>
<linearGradient id="paint28_linear_738_16526" x1="213.601" y1="201.161" x2="238.113" y2="233.844" gradientUnits="userSpaceOnUse">
<stop stop-color="#71389A"/>
<stop offset="1" stop-color="#CB84FF"/>
</linearGradient>
<linearGradient id="paint29_linear_738_16526" x1="217.828" y1="180.495" x2="220.192" y2="190.879" gradientUnits="userSpaceOnUse">
<stop stop-color="#71389A"/>
<stop offset="1" stop-color="#CB84FF"/>
</linearGradient>
<linearGradient id="paint30_linear_738_16526" x1="217.828" y1="119.469" x2="220.192" y2="129.853" gradientUnits="userSpaceOnUse">
<stop stop-color="#71389A"/>
<stop offset="1" stop-color="#CB84FF"/>
</linearGradient>
<linearGradient id="paint31_linear_738_16526" x1="157.297" y1="119.469" x2="159.661" y2="129.853" gradientUnits="userSpaceOnUse">
<stop stop-color="#71389A"/>
<stop offset="1" stop-color="#CB84FF"/>
</linearGradient>
<linearGradient id="paint32_linear_738_16526" x1="157.297" y1="180.495" x2="159.661" y2="190.879" gradientUnits="userSpaceOnUse">
<stop stop-color="#71389A"/>
<stop offset="1" stop-color="#CB84FF"/>
</linearGradient>
<linearGradient id="paint33_linear_738_16526" x1="139.518" y1="345.64" x2="144.425" y2="366.607" gradientUnits="userSpaceOnUse">
<stop stop-color="#71389A"/>
<stop offset="1" stop-color="#CB84FF"/>
</linearGradient>
<linearGradient id="paint34_linear_738_16526" x1="221.37" y1="346.378" x2="227.554" y2="368.778" gradientUnits="userSpaceOnUse">
<stop stop-color="#71389A"/>
<stop offset="1" stop-color="#CB84FF"/>
</linearGradient>
<linearGradient id="paint35_linear_738_16526" x1="60.0258" y1="237.346" x2="101.633" y2="266.287" gradientUnits="userSpaceOnUse">
<stop stop-color="#71389A"/>
<stop offset="1" stop-color="#CB84FF"/>
</linearGradient>
<linearGradient id="paint36_linear_738_16526" x1="17.1337" y1="247.671" x2="89.5142" y2="296.614" gradientUnits="userSpaceOnUse">
<stop stop-color="#71389A"/>
<stop offset="1" stop-color="#CB84FF"/>
</linearGradient>
<linearGradient id="paint37_linear_738_16526" x1="22.6924" y1="185.977" x2="53.6408" y2="204.876" gradientUnits="userSpaceOnUse">
<stop stop-color="#71389A"/>
<stop offset="1" stop-color="#CB84FF"/>
</linearGradient>
</defs>
</svg>
