<svg width="91" height="86" viewBox="0 0 91 86" fill="none" xmlns="http://www.w3.org/2000/svg">
<path d="M42.8453 85.6905C66.5081 85.6905 85.6905 66.5081 85.6905 42.8453C85.6905 19.1825 66.5081 0 42.8453 0C19.1825 0 0 19.1825 0 42.8453C0 66.5081 19.1825 85.6905 42.8453 85.6905Z" fill="#FAF5FF"/>
<path d="M42.8457 0.131836C66.4356 0.132067 85.5586 19.2558 85.5586 42.8457C85.5584 66.4354 66.4354 85.5584 42.8457 85.5586C19.2558 85.5586 0.132069 66.4356 0.131836 42.8457C0.131836 19.2557 19.2557 0.131836 42.8457 0.131836Z" stroke="black" stroke-opacity="0.34" stroke-width="0.26342"/>
<path d="M71.4541 52.6589C76.958 36.836 68.7871 19.6149 53.2039 14.1943C37.6207 8.77376 20.5263 17.2065 15.0224 33.0294C9.51845 48.8522 17.6893 66.0734 33.2725 71.494C48.8557 76.9145 65.9502 68.4818 71.4541 52.6589Z" fill="#C778FF"/>
<path d="M65.2566 50.5122C69.553 38.1679 63.1824 24.7314 51.0276 20.501C38.8727 16.2707 25.5365 22.8483 21.2401 35.1926C16.9438 47.5369 23.3144 60.9733 35.4692 65.2037C47.624 69.4341 60.9603 62.8565 65.2566 50.5122Z" fill="white"/>
<path d="M60.0552 42.5669C60.1098 47.0719 58.3838 51.4162 55.2526 54.6555C52.1214 57.8948 47.838 59.7671 43.3338 59.8653C41.1182 59.8936 38.9191 59.4813 36.8642 58.6523C34.8093 57.8233 32.9397 56.5942 31.364 55.0364C29.7883 53.4786 28.5379 51.6231 27.6855 49.5778C26.8331 47.5326 26.3957 45.3383 26.3987 43.1225C26.3441 38.6194 28.0686 34.2766 31.1975 31.0376C34.3265 27.7986 38.6071 25.9251 43.1095 25.8241C45.3256 25.7958 47.5252 26.2081 49.5807 27.0369C51.6361 27.8658 53.5064 29.0947 55.083 30.6524C56.6596 32.2101 57.911 34.0654 58.7645 36.1108C59.6181 38.1561 60.0568 40.3506 60.0552 42.5669Z" fill="#C778FF"/>
<path d="M53.478 42.6732C53.5041 45.4145 52.4508 48.0561 50.5456 50.0272C48.6403 51.9984 46.0362 53.141 43.2956 53.2083C41.9459 53.2253 40.6062 52.9737 39.3546 52.4683C38.103 51.9628 36.9643 51.2136 36.0049 50.2641C35.0455 49.3146 34.2844 48.1838 33.7659 46.9375C33.2475 45.6912 32.982 44.3543 32.985 43.0044C32.9561 40.2641 34.007 37.6226 35.9105 35.6511C37.814 33.6796 40.4171 32.5367 43.1567 32.4694C44.5065 32.4539 45.846 32.7063 47.0976 33.2122C48.3492 33.718 49.488 34.4671 50.448 35.4162C51.408 36.3652 52.1701 37.4954 52.6902 38.7411C53.2103 39.9868 53.4781 41.3233 53.478 42.6732Z" fill="white"/>
<path d="M47.795 42.7699C47.8039 43.9891 47.3344 45.1631 46.4874 46.04C45.6405 46.917 44.4835 47.4269 43.2647 47.4605C42.6639 47.4675 42.0677 47.3553 41.5106 47.1303C40.9535 46.9052 40.4466 46.5719 40.0192 46.1495C39.5919 45.7271 39.2526 45.2241 39.0211 44.6697C38.7895 44.1152 38.6703 43.5204 38.6704 42.9195C38.6532 41.6979 39.1199 40.5191 39.9686 39.6404C40.8173 38.7616 41.9792 38.2542 43.2006 38.229C43.8018 38.2205 44.3987 38.3317 44.9565 38.5562C45.5142 38.7808 46.0217 39.1141 46.4494 39.5367C46.877 39.9594 47.2162 40.4629 47.4473 41.018C47.6783 41.5731 47.7965 42.1687 47.795 42.7699Z" fill="#C778FF"/>
<path d="M80.1192 22.9294L44.3652 41.6211L44.7563 42.3691L80.5102 23.6774L80.1192 22.9294Z" fill="#263238"/>
<path d="M83.5302 24.9887L83.3485 24.9139L80.0684 23.9095L86.5218 20.5332L90.0157 21.6017L83.5302 24.9887Z" fill="#263238"/>
<path d="M87.3068 16.4126L86.1422 19.8103L79.7314 23.1866C80.2442 22.1027 80.6279 20.9623 80.8747 19.7889L87.3068 16.4126Z" fill="#263238"/>
<path d="M42.4932 41.6502L43.8287 44.0649L47.4188 43.7658L45.0682 41.8319L44.8331 38.8081L42.4932 41.6502Z" fill="#263238"/>
</svg>
