<svg width="81" height="104" viewBox="0 0 81 104" fill="none" xmlns="http://www.w3.org/2000/svg">
<path opacity="0.8" d="M40.7277 103.979C40.6424 103.979 40.5588 103.955 40.4863 103.91C40.4139 103.865 40.3556 103.8 40.3181 103.724L36.1127 94.9855C33.1338 95.5181 30.0781 95.4437 27.1286 94.7671L23.0597 103.169C23.005 103.278 22.9106 103.363 22.7958 103.405C22.6841 103.446 22.5615 103.446 22.4499 103.405L13.3474 99.0088C13.2393 98.9575 13.1558 98.8657 13.1149 98.7532C13.074 98.6408 13.0791 98.5168 13.1289 98.408L17.2524 89.8426C14.915 87.8148 13.0083 85.3386 11.6452 82.5606L2.80671 84.5723C2.74847 84.5881 2.68754 84.5914 2.62793 84.582C2.56831 84.5726 2.51135 84.5507 2.46081 84.5177C2.35951 84.4536 2.28756 84.3522 2.26056 84.2355L0.0122405 74.3684C-0.0154063 74.2504 0.00419248 74.1263 0.0668532 74.0225C0.134444 73.9206 0.238829 73.8489 0.358139 73.8222L9.3241 71.7742C9.43327 68.5933 10.2085 65.4706 11.5997 62.608L4.73643 57.1465C4.64266 57.0714 4.58238 56.9623 4.56873 56.8429C4.55509 56.7235 4.58921 56.6036 4.66363 56.5093L10.9716 48.5992C11.0503 48.5122 11.1595 48.4588 11.2765 48.4503C11.3936 48.4419 11.5093 48.4789 11.5997 48.5537L18.645 54.17C21.239 52.2558 24.2121 50.9182 27.3652 50.2468V41.563C27.3652 41.4423 27.4132 41.3266 27.4985 41.2412C27.5839 41.1559 27.6996 41.1079 27.8204 41.1079H37.9423C38.063 41.1079 38.1788 41.1559 38.2641 41.2412C38.3495 41.3266 38.3974 41.4423 38.3974 41.563V50.6655C41.4567 51.5448 44.2993 53.0513 46.7444 55.0893L53.6896 49.5459C53.7854 49.471 53.9068 49.4366 54.0276 49.4502C54.1485 49.4639 54.2592 49.5244 54.3359 49.6187L60.6439 57.5288C60.6805 57.5762 60.7074 57.6303 60.723 57.6881C60.7386 57.7459 60.7427 57.8062 60.735 57.8656C60.7293 57.9241 60.7118 57.9809 60.6837 58.0325C60.6555 58.0841 60.6172 58.1295 60.5711 58.166L53.2891 64.0007C54.3971 66.7232 54.9629 69.6359 54.9549 72.5752C54.9549 72.7391 54.9549 72.8938 54.9549 73.0576L63.9208 75.0966C64.037 75.1268 64.1373 75.2 64.2015 75.3014C64.2657 75.4028 64.289 75.5248 64.2667 75.6427L62.0093 85.5098C61.9964 85.5685 61.972 85.6241 61.9375 85.6733C61.903 85.7225 61.8591 85.7644 61.8083 85.7966C61.7575 85.8288 61.7009 85.8505 61.6417 85.8607C61.5824 85.8708 61.5217 85.8692 61.4631 85.8557L52.0785 83.7075C50.596 86.3464 48.6033 88.664 46.2165 90.5253L50.2944 98.9906C50.3399 99.1014 50.3399 99.2257 50.2944 99.3365C50.2746 99.3941 50.2435 99.4472 50.2028 99.4925C50.1622 99.5378 50.1128 99.5745 50.0577 99.6005L40.9552 103.988C40.8801 104.007 40.8011 104.004 40.7277 103.979ZM36.3494 94.0662C36.4351 94.0637 36.5197 94.0866 36.5926 94.1319C36.6654 94.1773 36.7233 94.243 36.759 94.321L40.9188 102.968L49.2203 98.9724L45.1788 90.5799C45.134 90.4844 45.1231 90.3763 45.1479 90.2738C45.1728 90.1712 45.2318 90.0801 45.3153 90.0156C47.8263 88.1317 49.8979 85.7247 51.3867 82.9611C51.4366 82.8741 51.5128 82.8051 51.6044 82.7642C51.6961 82.7233 51.7983 82.7126 51.8964 82.7336L61.1719 84.8545L63.2199 75.8794L54.3268 73.8496C54.2225 73.8262 54.1299 73.7668 54.065 73.6819C54.0001 73.5971 53.9671 73.4921 53.9718 73.3853C53.9718 73.267 53.9718 73.1578 53.9718 73.0394C53.9718 72.9211 53.9718 72.7299 53.9718 72.5661C53.9814 69.6321 53.3929 66.7269 52.2423 64.028C52.2058 63.9355 52.1993 63.8338 52.2238 63.7374C52.2483 63.641 52.3025 63.5547 52.3788 63.4909L59.5971 57.729L53.8626 50.529L46.972 55.9905C46.8895 56.057 46.7867 56.0932 46.6807 56.0932C46.5747 56.0932 46.4719 56.057 46.3894 55.9905C43.8936 53.8514 40.9518 52.2965 37.7785 51.4392C37.6815 51.4147 37.5955 51.3583 37.5344 51.2791C37.4733 51.1998 37.4407 51.1024 37.4417 51.0023V42.0273H28.2664V50.6291C28.2682 50.7345 28.2326 50.8371 28.1659 50.9187C28.0993 51.0004 28.0059 51.0558 27.9023 51.0751C24.6312 51.714 21.551 53.0968 18.8999 55.1166C18.8203 55.1779 18.7227 55.2111 18.6223 55.2111C18.5219 55.2111 18.4242 55.1779 18.3447 55.1166L11.3722 49.555L5.6376 56.7551L12.428 62.2166C12.51 62.2823 12.5673 62.374 12.5904 62.4765C12.6136 62.579 12.6012 62.6863 12.5555 62.7809C11.0668 65.7146 10.2668 68.9491 10.2161 72.2384C10.2162 72.3409 10.1809 72.4404 10.1163 72.52C10.0516 72.5995 9.96152 72.6544 9.86114 72.6753L0.995325 74.6961L3.04338 83.6802L11.7909 81.6777C11.8921 81.6575 11.9971 81.6715 12.0895 81.7177C12.1818 81.7639 12.2561 81.8395 12.3006 81.9326C13.6636 84.8306 15.6424 87.3965 18.0989 89.4512C18.1773 89.5176 18.2314 89.6081 18.2528 89.7086C18.2742 89.8091 18.2617 89.9139 18.2172 90.0065L14.1393 98.4718L22.4408 102.468L26.4459 94.139C26.491 94.0446 26.5672 93.9687 26.6617 93.924C26.7561 93.8792 26.8632 93.8684 26.9647 93.8932C30.0127 94.6425 33.1876 94.717 36.2675 94.1117L36.3494 94.0662ZM32.1076 82.952C30.0531 82.9538 28.0442 82.3462 26.335 81.2061C24.6259 80.066 23.2933 78.4446 22.5058 76.5469C21.7183 74.6493 21.5113 72.5608 21.911 70.5455C22.3108 68.5302 23.2992 66.6788 24.7513 65.2254C26.2035 63.7719 28.0541 62.7819 30.069 62.3804C32.0839 61.9789 34.1726 62.1841 36.0709 62.9699C37.9692 63.7557 39.5919 65.0869 40.7335 66.795C41.8751 68.5032 42.4844 70.5116 42.4845 72.5661C42.47 75.3104 41.371 77.9377 39.427 79.8748C37.4831 81.8119 34.852 82.9017 32.1076 82.9065V82.952ZM32.1076 63.0995C30.2327 63.0977 28.3995 63.6521 26.8398 64.6927C25.2801 65.7332 24.0642 67.213 23.3459 68.9448C22.6275 70.6766 22.4391 72.5826 22.8045 74.4216C23.1698 76.2605 24.0725 77.9498 25.3982 79.2755C26.7239 80.6013 28.4132 81.5039 30.2521 81.8693C32.0911 82.2346 33.9971 82.0462 35.7289 81.3279C37.4607 80.6095 38.9406 79.3936 39.9811 77.8339C41.0216 76.2743 41.576 74.441 41.5742 72.5661C41.5778 71.3198 41.3357 70.085 40.8618 68.9322C40.3879 67.7795 39.6915 66.7315 38.8123 65.8481C37.9331 64.9647 36.8885 64.2633 35.738 63.7838C34.5876 63.3044 33.3539 63.0564 32.1076 63.054V63.0995Z" fill="#71389A"/>
<path opacity="0.8" d="M61.3459 51.8296C61.2594 51.83 61.1746 51.8053 61.1019 51.7584C61.0291 51.7116 60.9716 51.6446 60.9363 51.5656L57.5046 44.4565C55.0899 44.8826 52.6145 44.8238 50.2227 44.2836L46.9276 51.1196C46.9022 51.1742 46.8662 51.2233 46.8217 51.2639C46.7772 51.3045 46.725 51.3359 46.6683 51.3563C46.6116 51.3766 46.5513 51.3854 46.4912 51.3823C46.431 51.3792 46.372 51.3641 46.3177 51.338L38.8446 47.697C38.7356 47.6459 38.6508 47.5546 38.6079 47.4422C38.5628 47.3281 38.5628 47.2012 38.6079 47.0872L41.9667 40.1238C40.0757 38.4768 38.529 36.4722 37.4155 34.2253L30.2336 35.8638C30.1756 35.8786 30.1152 35.8816 30.056 35.8726C29.9968 35.8636 29.94 35.8427 29.8891 35.8113C29.8381 35.7799 29.794 35.7385 29.7593 35.6897C29.7247 35.6408 29.7003 35.5855 29.6875 35.527L27.867 27.4349C27.8535 27.3763 27.8519 27.3156 27.862 27.2564C27.8722 27.1972 27.8939 27.1405 27.9261 27.0897C27.9583 27.039 28.0002 26.995 28.0494 26.9605C28.0986 26.926 28.1542 26.9016 28.2129 26.8887L35.4948 25.223C35.5764 22.6442 36.1965 20.1111 37.3153 17.7863L31.7264 13.3351C31.6608 13.2558 31.6254 13.1559 31.6263 13.053C31.6182 12.9929 31.6229 12.9319 31.6402 12.8738C31.6574 12.8158 31.6868 12.762 31.7264 12.7162L36.8966 6.2261C36.9348 6.1797 36.9819 6.14134 37.035 6.11322C37.0881 6.0851 37.1463 6.06778 37.2061 6.06226C37.2641 6.05422 37.323 6.05815 37.3794 6.0738C37.4358 6.08946 37.4883 6.11651 37.5338 6.15328L43.2775 10.7045C45.3819 9.15789 47.7887 8.07232 50.341 7.51865V0.455124C50.3433 0.335147 50.392 0.220731 50.4769 0.135879C50.5617 0.0510265 50.6761 0.0023303 50.7961 0H59.0976C59.2183 0 59.334 0.0479432 59.4194 0.133296C59.5048 0.218648 59.5527 0.334418 59.5527 0.455124V7.85544C62.0321 8.57413 64.3372 9.79486 66.325 11.4418L71.9776 6.93609C72.0232 6.89757 72.0761 6.86861 72.1332 6.85092C72.1902 6.83323 72.2503 6.82717 72.3097 6.83311C72.3691 6.83906 72.4267 6.85689 72.4791 6.88552C72.5315 6.91415 72.5777 6.95302 72.6148 6.99981L77.785 13.499C77.8234 13.5438 77.8521 13.596 77.8693 13.6524C77.8865 13.7088 77.8919 13.7681 77.8851 13.8267C77.8807 13.8878 77.8629 13.9472 77.833 14.0006C77.8031 14.0541 77.7619 14.1004 77.7122 14.1362L71.7683 18.8785C72.6683 21.1055 73.1289 23.4855 73.1245 25.8875C73.1245 25.9967 73.1245 26.1059 73.1245 26.2152L80.4065 27.8809C80.5233 27.9079 80.6247 27.9799 80.6887 28.0812C80.7503 28.1852 80.7729 28.3079 80.7524 28.4271L78.9319 36.5192C78.9017 36.6353 78.8285 36.7357 78.7271 36.7999C78.6257 36.8641 78.5037 36.8874 78.3858 36.8651L70.7397 35.1174C69.532 37.2493 67.9177 39.1234 65.9882 40.6335L69.3106 47.5241C69.3367 47.5784 69.3517 47.6374 69.3549 47.6976C69.358 47.7577 69.3491 47.8179 69.3288 47.8747C69.3085 47.9314 69.2771 47.9836 69.2365 48.0281C69.1959 48.0726 69.1468 48.1086 69.0921 48.134L61.619 51.7749C61.5344 51.8168 61.4401 51.8357 61.3459 51.8296ZM57.7686 43.4917C57.8542 43.4904 57.9382 43.5138 58.0109 43.559C58.0835 43.6041 58.1416 43.6693 58.1783 43.7465L61.5553 50.7646L68.2183 47.5605L64.9323 40.7427C64.8881 40.6485 64.8776 40.542 64.9025 40.441C64.9273 40.3399 64.986 40.2505 65.0688 40.1875C67.1163 38.6446 68.8081 36.6796 70.0297 34.4256C70.0785 34.3375 70.1546 34.2677 70.2465 34.2266C70.3385 34.1856 70.4413 34.1756 70.5394 34.198L78.0672 35.9184L79.7147 28.7092L72.4964 27.0617C72.3929 27.0402 72.3004 26.9827 72.2354 26.8993C72.1704 26.8159 72.1371 26.7122 72.1415 26.6066V26.3153C72.1415 26.197 72.1415 26.0695 72.1415 25.933C72.1413 23.5379 71.6615 21.1672 70.7306 18.9605C70.6915 18.8691 70.6829 18.7676 70.7058 18.671C70.7287 18.5743 70.7821 18.4875 70.858 18.4234L76.72 13.7539L72.1142 7.97377L66.5252 12.4249C66.4442 12.4947 66.3409 12.5331 66.2339 12.5331C66.127 12.5331 66.0236 12.4947 65.9427 12.4249C63.9076 10.6679 61.5025 9.39224 58.9064 8.69288C58.8087 8.66657 58.7225 8.60843 58.6615 8.52765C58.6005 8.44687 58.5682 8.34806 58.5697 8.24685V0.964861H51.1784V7.94647C51.1802 8.05184 51.1446 8.15446 51.078 8.2361C51.0113 8.31774 50.9179 8.37315 50.8143 8.39249C48.1428 8.90982 45.6281 10.041 43.4686 11.6967C43.3876 11.7587 43.2885 11.7923 43.1865 11.7923C43.0844 11.7923 42.9853 11.7587 42.9043 11.6967L37.2516 7.14544L32.6458 12.9164L38.1073 17.3129C38.1906 17.3776 38.249 17.4693 38.2722 17.5722C38.2954 17.6752 38.2822 17.783 38.2347 17.8773C37.0176 20.2742 36.3638 22.9174 36.3232 25.6053C36.3221 25.7061 36.2875 25.8038 36.2249 25.8829C36.1623 25.962 36.0752 26.018 35.9773 26.0422L28.8955 27.708L30.534 34.9171L37.6339 33.2969C37.7342 33.2743 37.8391 33.2863 37.9316 33.3309C38.0242 33.3755 38.0989 33.4502 38.1437 33.5427C39.2585 35.9114 40.8769 38.0083 42.8861 39.6868C42.9624 39.7527 43.0153 39.8416 43.0366 39.9401C43.058 40.0387 43.0467 40.1415 43.0044 40.233L39.6911 47.1145L46.3541 50.3185L49.6037 43.5554C49.6513 43.4632 49.7279 43.3893 49.8216 43.3449C49.9153 43.3005 50.0211 43.2881 50.1225 43.3096C52.6087 43.9272 55.2 43.9925 57.714 43.5008L57.7686 43.4917ZM54.2824 34.5348C52.5811 34.5348 50.918 34.0303 49.5034 33.0852C48.0889 32.14 46.9864 30.7965 46.3353 29.2248C45.6842 27.653 45.5139 25.9234 45.8458 24.2548C46.1777 22.5862 46.997 21.0535 48.2 19.8505C49.403 18.6476 50.9356 17.8283 52.6042 17.4964C54.2728 17.1645 56.0024 17.3349 57.5742 17.9859C59.1459 18.637 60.4894 19.7395 61.4345 21.154C62.3797 22.5686 62.8842 24.2317 62.8842 25.933C62.8818 28.2136 61.9748 30.4001 60.3621 32.0127C58.7495 33.6254 56.563 34.5324 54.2824 34.5348ZM54.2824 18.2505C52.7607 18.2505 51.2733 18.7018 50.0082 19.5474C48.7431 20.393 47.7573 21.5948 47.1754 23.0007C46.5935 24.4067 46.4417 25.9537 46.7392 27.446C47.0367 28.9383 47.7702 30.3088 48.8468 31.3841C49.9234 32.4594 51.2948 33.1912 52.7874 33.487C54.28 33.7828 55.8268 33.6291 57.2321 33.0456C58.6374 32.462 59.8381 31.4748 60.6821 30.2087C61.5262 28.9426 61.9758 27.4546 61.974 25.933C61.9692 23.8954 61.157 21.9427 59.7153 20.5027C58.2736 19.0628 56.32 18.2529 54.2824 18.2505Z" fill="#71389A"/>
</svg>
