<svg width="56" height="101" viewBox="0 0 56 101" fill="none" xmlns="http://www.w3.org/2000/svg">
<path d="M31.1494 7.31348V44.0524" stroke="#606266" stroke-width="1.27255" stroke-linecap="round" stroke-linejoin="round"/>
<path d="M35.5127 8.29395V44.0467" stroke="#606266" stroke-width="1.27255" stroke-linecap="round" stroke-linejoin="round"/>
<path d="M40.292 27.8613V62.4914" stroke="#606266" stroke-width="1.27255" stroke-linecap="round" stroke-linejoin="round"/>
<path d="M45.3633 8.29395V62.4886" stroke="#606266" stroke-width="1.27255" stroke-linecap="round" stroke-linejoin="round"/>
<path d="M50.4346 8.29395V45.0329" stroke="#606266" stroke-width="1.27255" stroke-linecap="round" stroke-linejoin="round"/>
<path d="M27.3506 12.2363H50.5784" stroke="#606266" stroke-width="1.27255" stroke-linecap="round" stroke-linejoin="round"/>
<path d="M27.3506 20.3979H52.5398" stroke="#606266" stroke-width="1.27255" stroke-linecap="round" stroke-linejoin="round"/>
<path d="M26.9297 27.8613H54.9408" stroke="#606266" stroke-width="1.27255" stroke-linecap="round" stroke-linejoin="round"/>
<path d="M26.5039 36.167H54.9384" stroke="#606266" stroke-width="1.27255" stroke-linecap="round" stroke-linejoin="round"/>
<path d="M31.8525 45.1709H53.3894" stroke="#606266" stroke-width="1.27255" stroke-linecap="round" stroke-linejoin="round"/>
<path d="M37.4844 53.9023H51.5609" stroke="#606266" stroke-width="1.27255" stroke-linecap="round" stroke-linejoin="round"/>
<path d="M0.423828 10.7949L5.39283 14.6849" stroke="#606266" stroke-width="0.848365" stroke-linecap="round" stroke-linejoin="round"/>
<path d="M10.3633 6.68945L12.0925 9.28186" stroke="#606266" stroke-width="0.848365" stroke-linecap="round" stroke-linejoin="round"/>
<path d="M19.2236 0.424316L20.737 5.17751" stroke="#606266" stroke-width="0.848365" stroke-linecap="round" stroke-linejoin="round"/>
<path d="M47.5717 61.5064H39.3766V42.0211H28.2585V7.51123C23.5727 7.5575 18.9777 8.80833 14.9151 11.1435C10.8524 13.4787 7.45876 16.8196 5.06034 20.8453C2.66192 24.8709 1.33937 29.4458 1.21983 34.1302C1.10029 38.8146 2.18777 43.4511 4.37774 47.5938C5.26828 49.6672 7.36078 54.7454 9.45601 61.3125C11.3928 67.3742 12.4035 73.4686 12.4035 74.3892C12.4035 74.4794 12.4035 74.5723 12.4035 74.6624C12.394 74.9364 12.4397 75.2096 12.538 75.4655C12.6362 75.7215 12.785 75.9551 12.9754 76.1524C13.1658 76.3497 13.3939 76.5066 13.6463 76.6139C13.8986 76.7212 14.17 76.7766 14.4441 76.7768H42.6492C42.9232 76.7762 43.1944 76.7205 43.4466 76.6131C43.6987 76.5058 43.9267 76.3488 44.1171 76.1516C44.3074 75.9544 44.4562 75.7209 44.5545 75.4651C44.6529 75.2093 44.6989 74.9363 44.6898 74.6624C44.6898 74.5641 44.6898 74.4712 44.6898 74.3892C44.6843 73.4796 45.6759 67.5026 47.5717 61.5064Z" fill="#C778FF" stroke="#606266" stroke-width="0.848365" stroke-linecap="round" stroke-linejoin="round"/>
<path d="M18.9961 11.9192C19.7866 11.5628 20.5975 11.2536 21.4246 10.9932" stroke="#606266" stroke-width="0.848365" stroke-linecap="round" stroke-linejoin="round"/>
<path d="M9.89844 18.8414C9.89844 18.8414 12.1248 15.2902 17.0173 12.8999" stroke="#606266" stroke-width="0.848365" stroke-linecap="round" stroke-linejoin="round"/>
<path d="M10.4873 58.1562C11.5008 61.4671 12.8421 66.0537 13.3064 68.616C14.0932 72.9376 13.5796 75.1721 15.2733 75.5573" stroke="#606266" stroke-width="0.848365" stroke-linecap="round" stroke-linejoin="round"/>
<path d="M9.24902 54.2041C9.24902 54.2041 9.5222 55.0919 9.962 56.4523" stroke="#606266" stroke-width="0.848365" stroke-linecap="round" stroke-linejoin="round"/>
<path d="M26.8145 76.5158V50.4006C26.8145 50.4006 27.9072 43.5713 24.356 43.5713C20.8048 43.5713 21.0779 47.1225 25.1755 50.9469C29.2731 54.7713 35.5561 51.2201 36.3756 48.2152C37.1951 45.2103 35.0097 43.8445 33.6439 46.303C32.278 48.7616 33.6439 76.6251 33.6439 76.6251" stroke="#606266" stroke-width="0.848365" stroke-linecap="round" stroke-linejoin="round"/>
<path d="M43.3579 76.6245H13.8799V83.4647H43.3579V76.6245Z" fill="white" stroke="#606266" stroke-width="0.848365" stroke-linecap="round" stroke-linejoin="round"/>
<path d="M43.3579 85.0884H13.8799V91.9286H43.3579V85.0884Z" fill="white" stroke="#606266" stroke-width="0.848365" stroke-linecap="round" stroke-linejoin="round"/>
<path d="M43.3579 83.459H13.8799V85.0871H43.3579V83.459Z" fill="#606266" stroke="#606266" stroke-width="0.424182" stroke-linecap="round" stroke-linejoin="round"/>
<path d="M43.3579 93.5571H13.8799V100.397H43.3579V93.5571Z" fill="white" stroke="#606266" stroke-width="0.848365" stroke-linecap="round" stroke-linejoin="round"/>
<path d="M40.2773 82.543H42.4682" stroke="#606266" stroke-width="0.424182" stroke-linecap="round" stroke-linejoin="round"/>
<path d="M15.0488 82.543H39.23" stroke="#606266" stroke-width="0.424182" stroke-linecap="round" stroke-linejoin="round"/>
<path d="M34.5967 91.1504H41.6582" stroke="#606266" stroke-width="0.424182" stroke-linecap="round" stroke-linejoin="round"/>
<path d="M19.417 91.1504H33.7831" stroke="#606266" stroke-width="0.424182" stroke-linecap="round" stroke-linejoin="round"/>
<path d="M17.0645 91.1504H18.2801" stroke="#606266" stroke-width="0.424182" stroke-linecap="round" stroke-linejoin="round"/>
<path d="M43.3579 91.9331H13.8799V93.5612H43.3579V91.9331Z" fill="#606266" stroke="#606266" stroke-width="0.424182" stroke-linecap="round" stroke-linejoin="round"/>
<path d="M27.8088 95.0532H17.7178V100.306H27.8088V95.0532Z" fill="#C778FF" stroke="#606266" stroke-width="0.424182" stroke-linecap="round" stroke-linejoin="round"/>
<path d="M40.9435 95.0532H30.8525V100.306H40.9435V95.0532Z" fill="#C778FF" stroke="#606266" stroke-width="0.424182" stroke-linecap="round" stroke-linejoin="round"/>
</svg>
