<svg width="78" height="124" viewBox="0 0 78 124" fill="none" xmlns="http://www.w3.org/2000/svg">
<mask id="path-1-outside-1_286_5197" maskUnits="userSpaceOnUse" x="-0.960938" y="7.50391" width="52" height="116" fill="black">
<rect fill="white" x="-0.960938" y="7.50391" width="52" height="116"/>
<path d="M49.1611 38.7578L36.2939 38.8057L36.6006 122.612L14.6807 122.693L14.373 38.8877L1.03906 38.9375L25.2275 8.50391L49.1611 38.7578Z"/>
</mask>
<path d="M49.1611 38.7578L36.2939 38.8057L36.6006 122.612L14.6807 122.693L14.373 38.8877L1.03906 38.9375L25.2275 8.50391L49.1611 38.7578Z" fill="#FAF5FF"/>
<path d="M49.1611 38.7578L49.163 39.2578L50.1912 39.254L49.5533 38.4476L49.1611 38.7578ZM36.2939 38.8057L36.2921 38.3057L35.7921 38.3075L35.7939 38.8075L36.2939 38.8057ZM36.6006 122.612L36.6024 123.112L37.1024 123.11L37.1006 122.61L36.6006 122.612ZM14.6807 122.693L14.1807 122.695L14.1825 123.195L14.6825 123.193L14.6807 122.693ZM14.373 38.8877L14.873 38.8859L14.8712 38.3858L14.3712 38.3877L14.373 38.8877ZM1.03906 38.9375L0.647636 38.6264L-0.000112891 39.4414L1.04093 39.4375L1.03906 38.9375ZM25.2275 8.50391L25.6197 8.19369L25.2285 7.69916L24.8361 8.1928L25.2275 8.50391ZM49.1611 38.7578L49.1593 38.2578L36.2921 38.3057L36.2939 38.8057L36.2958 39.3057L49.163 39.2578L49.1611 38.7578ZM36.2939 38.8057L35.7939 38.8075L36.1006 122.614L36.6006 122.612L37.1006 122.61L36.7939 38.8038L36.2939 38.8057ZM36.6006 122.612L36.5987 122.112L14.6788 122.193L14.6807 122.693L14.6825 123.193L36.6024 123.112L36.6006 122.612ZM14.6807 122.693L15.1807 122.692L14.873 38.8859L14.373 38.8877L13.8731 38.8895L14.1807 122.695L14.6807 122.693ZM14.373 38.8877L14.3712 38.3877L1.03719 38.4375L1.03906 38.9375L1.04093 39.4375L14.3749 39.3877L14.373 38.8877ZM1.03906 38.9375L1.43049 39.2486L25.619 8.81501L25.2275 8.50391L24.8361 8.1928L0.647636 38.6264L1.03906 38.9375ZM25.2275 8.50391L24.8354 8.81412L48.769 39.068L49.1611 38.7578L49.5533 38.4476L25.6197 8.19369L25.2275 8.50391Z" fill="#71389A" mask="url(#path-1-outside-1_286_5197)"/>
<mask id="path-3-outside-2_286_5197" maskUnits="userSpaceOnUse" x="47.1602" y="-0.195312" width="30" height="66" fill="black">
<rect fill="white" x="47.1602" y="-0.195312" width="30" height="66"/>
<path d="M76.0371 17.7002L68.8545 17.7266L69.0254 64.5312L56.7832 64.5762L56.6113 17.7715L49.1602 17.7998L62.6729 0.804688L76.0371 17.7002Z"/>
</mask>
<path d="M76.0371 17.7002L68.8545 17.7266L69.0254 64.5312L56.7832 64.5762L56.6113 17.7715L49.1602 17.7998L62.6729 0.804688L76.0371 17.7002Z" fill="#FAF5FF"/>
<path d="M76.0371 17.7002L76.0389 18.2002L77.0671 18.1964L76.4293 17.39L76.0371 17.7002ZM68.8545 17.7266L68.8527 17.2266L68.3527 17.2284L68.3545 17.7284L68.8545 17.7266ZM69.0254 64.5312L69.0272 65.0312L69.5272 65.0294L69.5254 64.5294L69.0254 64.5312ZM56.7832 64.5762L56.2832 64.578L56.285 65.078L56.785 65.0762L56.7832 64.5762ZM56.6113 17.7715L57.1113 17.7696L57.1095 17.2696L56.6094 17.2715L56.6113 17.7715ZM49.1602 17.7998L48.7688 17.4886L48.1207 18.3038L49.1621 18.2998L49.1602 17.7998ZM62.6729 0.804688L63.065 0.494498L62.6739 8.16584e-06L62.2815 0.493512L62.6729 0.804688ZM76.0371 17.7002L76.0353 17.2002L68.8527 17.2266L68.8545 17.7266L68.8563 18.2266L76.0389 18.2002L76.0371 17.7002ZM68.8545 17.7266L68.3545 17.7284L68.5254 64.5331L69.0254 64.5312L69.5254 64.5294L69.3545 17.7247L68.8545 17.7266ZM69.0254 64.5312L69.0236 64.0313L56.7814 64.0762L56.7832 64.5762L56.785 65.0762L69.0272 65.0312L69.0254 64.5312ZM56.7832 64.5762L57.2832 64.5743L57.1113 17.7696L56.6113 17.7715L56.1113 17.7733L56.2832 64.578L56.7832 64.5762ZM56.6113 17.7715L56.6094 17.2715L49.1583 17.2998L49.1602 17.7998L49.1621 18.2998L56.6132 18.2715L56.6113 17.7715ZM49.1602 17.7998L49.5515 18.111L63.0642 1.11586L62.6729 0.804688L62.2815 0.493512L48.7688 17.4886L49.1602 17.7998ZM62.6729 0.804688L62.2807 1.11488L75.645 18.0104L76.0371 17.7002L76.4293 17.39L63.065 0.494498L62.6729 0.804688Z" fill="#71389A" mask="url(#path-3-outside-2_286_5197)"/>
</svg>
