<svg width="89" height="96" viewBox="0 0 89 96" fill="none" xmlns="http://www.w3.org/2000/svg">
<path d="M44.4232 0.0144729C44.1666 -0.00482431 43.909 -0.00482431 43.6524 0.0144729H41.3571C40.1049 0.0357644 38.8563 0.15604 37.623 0.37418C36.9036 0.494082 36.0985 0.562596 35.2764 0.733886L32.6214 1.38478C21.975 4.17492 12.7891 10.9113 6.92792 20.2266C2.816 26.5999 0.453062 33.9427 0.07634 41.5179C-0.439358 50.2318 1.66664 58.9004 6.12287 66.4063C11.027 74.7322 18.5059 81.2373 27.4313 84.9399C32.1279 86.889 37.1326 87.9908 42.2136 88.1943C47.4269 88.5211 52.6554 87.8704 57.6296 86.2759L58.075 86.1389H57.7153L83.5629 95.0973L84.6077 95.457L84.2823 94.395C81.9699 86.9611 79.726 79.7669 77.5677 72.8811L77.465 73.3949C82.0356 68.255 85.3445 62.1199 87.1286 55.4772C88.9127 48.8344 89.1228 41.8671 87.7424 35.1288C86.6115 29.4259 84.3455 24.0086 81.0792 19.1989C78.2732 15.0929 74.7994 11.4859 70.8018 8.52757C69.0897 7.27224 67.2989 6.12797 65.4404 5.10178C63.7752 4.22413 62.0593 3.44624 60.3018 2.77224C58.8655 2.20676 57.3953 1.73193 55.8996 1.35053C54.5917 0.977001 53.2576 0.70216 51.9086 0.528334C50.6924 0.357044 49.6304 0.185755 48.7055 0.10011H46.3588H44.92C44.7549 0.081439 44.5883 0.081439 44.4232 0.10011C44.5876 0.128564 44.7556 0.128564 44.92 0.10011L46.3417 0.220012L48.6712 0.391312C49.5962 0.494086 50.6582 0.699635 51.8401 0.888053C53.1724 1.10057 54.4887 1.40389 55.7797 1.79589C57.3378 2.20415 58.8659 2.71924 60.3531 3.3375C62.1089 4.02863 63.8245 4.8178 65.4918 5.70129C67.3093 6.73185 69.0599 7.87606 70.7333 9.12708C74.6124 12.0873 77.98 15.6632 80.7023 19.7128C83.8696 24.4508 86.0592 29.7734 87.1428 35.3686C88.4459 41.9688 88.1957 48.7816 86.412 55.2684C84.6283 61.7552 81.36 67.7381 76.8655 72.744L76.6599 72.9667V73.2579C78.8067 80.1095 81.0278 87.2922 83.3231 94.8061L84.0425 94.1038L58.212 85.1283H58.0407H57.8523L57.4412 85.2824C52.5759 86.8337 47.4645 87.4668 42.3677 87.1495C37.4191 86.9453 32.5441 85.8788 27.9623 83.9978C19.2552 80.3901 11.9486 74.063 7.13347 65.961C3.07897 59.096 0.983175 51.2513 1.07377 43.2789C1.16436 35.3066 3.43788 27.5115 7.64734 20.7405C13.3753 11.5411 22.3396 4.81935 32.7755 1.89866L35.3791 1.21349C36.2013 1.00795 36.9892 0.922306 37.7258 0.802403C38.9383 0.543023 40.17 0.382627 41.4085 0.322795L43.6867 0.151508C43.9356 0.126439 44.1819 0.0805991 44.4232 0.0144729Z" fill="#71389A"/>
<path d="M60.4779 43.6057C60.4403 40.9268 59.6836 38.3071 58.287 36.0208C56.8903 33.7344 54.9051 31.8652 52.5388 30.6087C50.1725 29.3523 47.512 28.7546 44.8357 28.8782C42.1594 29.0019 39.5654 29.8423 37.325 31.3116C35.0847 32.781 33.2802 34.8252 32.1003 37.2306C30.9205 39.6361 30.4085 42.3143 30.6181 44.9853C30.8276 47.6563 31.7509 50.2219 33.2914 52.414C34.8319 54.606 36.933 56.3439 39.3751 57.4459C39.3751 59.1588 39.3751 61.2143 39.3751 61.2143L52.4787 61.0259C52.4787 61.0259 52.4787 58.9019 52.4787 57.0177C54.9184 55.7363 56.9566 53.8056 58.3682 51.4389C59.7798 49.0721 60.5099 46.3613 60.4779 43.6057Z" fill="#FAFAFA"/>
<path d="M60.4688 43.6054C60.5229 43.9803 60.5229 44.361 60.4688 44.7359C60.4332 45.8343 60.2781 46.9256 60.0063 47.9904C59.5796 49.6864 58.8546 51.293 57.8652 52.7352C56.5266 54.6433 54.7688 56.2195 52.7265 57.3429L52.8978 57.0517C52.8978 58.3192 52.8978 59.6553 52.8978 61.0598V61.4024H52.5381L39.4516 61.6765H39.0233V61.2996C39.0233 60.1006 39.0233 58.8331 39.0233 57.5313L39.2632 57.9081C37.1742 56.966 35.3216 55.5701 33.8401 53.8219C32.3585 52.0737 31.2854 50.0172 30.6987 47.802C29.7951 44.3766 30.11 40.7436 31.5894 37.5246C32.9381 34.5573 35.185 32.0887 38.0127 30.4675C39.351 29.7527 40.78 29.2226 42.2607 28.8917C43.658 28.6097 45.0861 28.5118 46.5087 28.6005C49.0625 28.7817 51.53 29.6003 53.6857 30.9814C56.8129 32.9902 59.0787 36.0927 60.0406 39.6829C60.4154 40.9721 60.5603 42.3173 60.4688 43.6568C60.307 42.3506 60.0552 41.0572 59.7151 39.7857C58.8337 36.9003 57.0915 34.3532 54.722 32.4858C52.3524 30.6183 49.4688 29.5196 46.4573 29.337C45.1014 29.269 43.7424 29.3784 42.4149 29.6624C41.0231 29.9924 39.6812 30.505 38.4238 31.1869C35.7326 32.7243 33.5978 35.075 32.3259 37.9015C30.9383 40.9285 30.6476 44.3442 31.5037 47.5622C32.0535 49.6478 33.0593 51.5854 34.4485 53.2352C35.8377 54.8851 37.5757 56.2061 39.5372 57.103L39.7941 57.2229V57.497C39.7941 58.7988 39.7941 60.0835 39.7941 61.2654L39.3659 60.8543L52.4696 60.7173L52.1099 61.0598C52.1099 59.6724 52.1099 58.3192 52.1099 57.0688V56.8632H52.2812C55.7824 54.9928 58.4045 51.8168 59.5781 48.0247C60.0151 46.5833 60.3134 45.1035 60.4688 43.6054Z" fill="#71389A"/>
<path d="M47.7828 61.0298C47.7794 60.967 47.7794 60.9041 47.7828 60.8413V60.3103C47.7828 59.8307 47.9027 59.1285 48.0226 58.2378C48.1425 57.347 48.3138 56.2336 48.5708 54.9832C48.8631 53.5499 49.2992 52.1496 49.8726 50.8038C50.188 50.0116 50.584 49.2539 51.0544 48.5428C51.3124 48.1535 51.6587 47.8307 52.0651 47.6007C52.2846 47.4866 52.5285 47.427 52.7759 47.427C53.0234 47.427 53.2672 47.4866 53.4868 47.6007C53.6019 47.6603 53.7038 47.7426 53.7862 47.8427C53.8687 47.9428 53.9299 48.0586 53.9664 48.183C54.0682 48.4299 54.0682 48.707 53.9664 48.9538C53.728 49.4193 53.3251 49.7796 52.8359 49.9645C52.3178 50.1458 51.7687 50.2211 51.2209 50.186C50.6732 50.1508 50.1382 50.0059 49.6476 49.7598C49.157 49.5137 48.721 49.1715 48.3653 48.7535C48.0096 48.3355 47.7416 47.8502 47.5773 47.3266C47.375 46.7787 47.3334 46.1844 47.4574 45.6137C47.5212 45.3086 47.6897 45.0355 47.9337 44.8416C48.1777 44.6476 48.4818 44.5451 48.7934 44.5517C48.9557 44.562 49.1125 44.615 49.2478 44.7052C49.3831 44.7954 49.4923 44.9197 49.5642 45.0656C49.7202 45.341 49.769 45.6643 49.7013 45.9734C49.529 46.573 49.1687 47.1014 48.6735 47.4807C48.2079 47.8865 47.6627 48.1905 47.0727 48.3734C46.4828 48.5563 45.8612 48.614 45.2477 48.5428C44.6247 48.4572 44.032 48.2205 43.5214 47.8532C43.0109 47.486 42.5979 46.9994 42.3187 46.4359C42.1742 46.1583 42.0875 45.8542 42.0639 45.5421C42.0404 45.23 42.0804 44.9164 42.1816 44.6202C42.3028 44.3209 42.5365 44.0811 42.8326 43.9522C42.9786 43.889 43.1359 43.8564 43.295 43.8564C43.4541 43.8564 43.6115 43.889 43.7575 43.9522C44.0294 44.1006 44.2502 44.3274 44.3913 44.6031C44.536 44.8663 44.6181 45.1594 44.6311 45.4595C44.705 46.3104 44.5307 47.1644 44.1295 47.9183C43.7282 48.6722 43.1171 49.2936 42.3701 49.7075C41.4308 50.2253 40.339 50.3951 39.2869 50.1871C38.7645 50.1125 38.2821 49.8653 37.9165 49.4849C37.743 49.29 37.6388 49.0432 37.6202 48.7829C37.6016 48.5227 37.6697 48.2635 37.8138 48.046C37.9881 47.858 38.2263 47.7419 38.4818 47.7206C38.7281 47.6902 38.978 47.7318 39.2012 47.8405C39.6096 48.0699 39.9337 48.424 40.1262 48.8511C40.5201 49.6561 40.8285 50.4441 41.1539 51.1978C42.3872 54.1782 43.2779 56.6619 43.8774 58.3748C44.1686 59.2141 44.3913 59.8821 44.5454 60.3446L44.6996 60.8585V61.0469V60.8756L44.5112 60.3617C44.357 59.8992 44.1172 59.2312 43.826 58.3919C43.2094 56.679 42.3016 54.2296 41.0511 51.2491C40.7257 50.4955 40.4002 49.7075 40.0234 48.9196C39.8424 48.5189 39.5357 48.1882 39.1498 47.9775C38.9583 47.8727 38.7379 47.8327 38.5218 47.8636C38.3057 47.8945 38.1053 47.9946 37.9508 48.1488C37.8302 48.3403 37.7751 48.5656 37.7936 48.7911C37.8121 49.0166 37.9034 49.23 38.0536 49.3992C38.4053 49.7392 38.8544 49.9608 39.3382 50.033C40.3497 50.2289 41.3979 50.0654 42.3016 49.5705C43.2458 49.03 43.9544 48.1565 44.2885 47.1211C44.4732 46.5701 44.5374 45.986 44.4769 45.4082C44.458 45.1596 44.3816 44.9188 44.2538 44.7048C44.126 44.4908 43.9502 44.3094 43.7404 44.1749C43.6205 44.1159 43.4886 44.0852 43.355 44.0852C43.2214 44.0852 43.0895 44.1159 42.9696 44.1749C42.8429 44.224 42.7283 44.2999 42.6336 44.3975C42.539 44.495 42.4666 44.6119 42.4215 44.7401C42.3171 45.0182 42.2752 45.3158 42.2989 45.6119C42.3226 45.9079 42.4112 46.1951 42.5585 46.453C42.8221 46.9899 43.2125 47.4546 43.696 47.8067C44.1795 48.1589 44.7415 48.388 45.3334 48.4742C45.9284 48.5471 46.5322 48.4932 47.1049 48.3161C47.6776 48.1389 48.2064 47.8426 48.6564 47.4465C49.1234 47.0945 49.4655 46.6023 49.6328 46.0419C49.6867 45.7733 49.6442 45.4944 49.5128 45.254C49.4536 45.1336 49.364 45.0308 49.2528 44.9557C49.1417 44.8806 49.0128 44.8358 48.8791 44.8258C48.6101 44.8166 48.3474 44.9082 48.1425 45.0827C47.9401 45.2578 47.7965 45.4911 47.7314 45.7507C47.6039 46.32 47.6395 46.9137 47.8342 47.4636C48.0015 47.975 48.2695 48.4477 48.6226 48.8537C48.9756 49.2597 49.4065 49.5908 49.8897 49.8274C50.8222 50.2733 51.8926 50.3348 52.8701 49.9987C53.3236 49.8277 53.7004 49.4994 53.9321 49.0738C54.0306 48.8728 54.0481 48.6417 53.9812 48.4282C53.9143 48.2146 53.7679 48.0349 53.5724 47.9261C53.3733 47.8253 53.1532 47.7727 52.9301 47.7727C52.7069 47.7727 52.4868 47.8253 52.2877 47.9261C51.8987 48.1383 51.5689 48.4445 51.3285 48.8168C50.8651 49.5201 50.4693 50.2656 50.1466 51.0436C49.5687 52.3774 49.1268 53.7662 48.8277 55.1888C48.5536 56.4392 48.3823 57.5355 48.2453 58.4262C48.1083 59.3169 48.0398 60.0192 47.9712 60.4988C47.9027 60.9784 47.9712 60.9099 47.9712 61.0469C47.9081 61.0465 47.845 61.0408 47.7828 61.0298Z" fill="#71389A"/>
<path d="M51.5488 63.4566L40.3122 63.6279C40.2014 63.6326 40.0908 63.6147 39.9871 63.5755C39.8833 63.5362 39.7886 63.4764 39.7086 63.3996C39.6286 63.3228 39.5649 63.2305 39.5215 63.1285C39.478 63.0264 39.4557 62.9167 39.4558 62.8058C39.4512 62.6949 39.469 62.5843 39.5083 62.4806C39.5475 62.3769 39.6073 62.2821 39.6841 62.2021C39.761 62.1221 39.8532 62.0584 39.9552 62.015C40.0573 61.9715 40.1671 61.9492 40.278 61.9493L51.5317 61.778C51.6419 61.7757 51.7515 61.7952 51.8542 61.8353C51.9569 61.8754 52.0507 61.9353 52.1303 62.0117C52.2098 62.088 52.2735 62.1793 52.3178 62.2803C52.362 62.3813 52.3859 62.49 52.3882 62.6002C52.3904 62.7118 52.3704 62.8229 52.3292 62.9267C52.2881 63.0305 52.2266 63.125 52.1485 63.2048C52.0703 63.2845 51.977 63.3479 51.874 63.3912C51.7711 63.4344 51.6605 63.4567 51.5488 63.4566Z" fill="#71389A"/>
<path d="M51.5614 64.2002L40.3077 64.3715C40.1975 64.3737 40.0888 64.3976 39.9878 64.4419C39.8868 64.4861 39.7956 64.5499 39.7192 64.6294C39.6429 64.7089 39.5829 64.8027 39.5428 64.9054C39.5027 65.0081 39.4833 65.1177 39.4855 65.2279C39.49 65.4521 39.5822 65.6655 39.7424 65.8225C39.9025 65.9794 40.1178 66.0673 40.342 66.0672H41.5753L43.2882 69.1505C43.3814 69.3269 43.5224 69.4735 43.6951 69.5735C43.8678 69.6734 44.0651 69.7227 44.2645 69.7157H48.2898C48.4884 69.7096 48.6814 69.6488 48.8477 69.54C49.0139 69.4312 49.1469 69.2786 49.2319 69.0991L50.7735 65.9645H51.63C51.8571 65.9645 52.075 65.8742 52.2356 65.7136C52.3962 65.553 52.4864 65.3352 52.4864 65.108C52.4864 64.8809 52.3962 64.663 52.2356 64.5024C52.075 64.3418 51.8571 64.2516 51.63 64.2516L51.5614 64.2002Z" fill="#71389A"/>
<g opacity="0.2">
<path d="M35.7668 34.4457C36.6342 33.6106 37.636 32.9273 38.7301 32.4245C39.4559 32.0737 40.2292 31.8313 41.0254 31.7051C41.5906 31.7051 41.9161 31.7051 41.9503 31.8078C41.9846 31.9106 40.8883 32.5101 39.381 33.5207C37.4257 34.8349 35.8677 36.6595 34.8761 38.7965C33.9608 40.9566 33.6413 43.3226 33.9511 45.648C34.1909 47.4808 34.6363 48.5942 34.3965 48.7141C34.1566 48.834 34.0196 48.5771 33.6942 48.1146C33.2517 47.4434 32.9111 46.7103 32.6836 45.9392C32.3443 44.7772 32.1883 43.5694 32.2211 42.3593C32.2709 40.8662 32.6022 39.3959 33.1974 38.0257" fill="white"/>
</g>
<g opacity="0.2">
<path d="M45.5539 32.4084C44.6118 32.4084 43.841 32.1686 43.6697 31.6718C43.4984 31.1751 43.7896 31.1408 44.1322 30.9353C44.5602 30.693 45.045 30.5689 45.5368 30.5756C46.0316 30.551 46.5236 30.6637 46.9585 30.901C47.3011 31.1066 47.4724 31.3806 47.4381 31.6204" fill="white"/>
</g>
<path d="M48.9941 69.3037C48.9941 69.3037 48.7029 69.201 48.2233 69.0811C47.5985 68.9129 46.9511 68.8435 46.3049 68.8755C45.6614 68.9057 45.0262 69.0327 44.4207 69.2524C43.9582 69.4236 43.6841 69.5607 43.667 69.5435C43.8769 69.3688 44.1142 69.23 44.3693 69.1325C44.9819 68.867 45.6379 68.7161 46.3049 68.6871C46.9672 68.6557 47.6295 68.7487 48.2576 68.9612C48.5236 69.0248 48.7741 69.1413 48.9941 69.3037Z" fill="#455A64"/>
<path d="M50.7815 65.9427C50.7815 65.9427 48.7431 66.0626 46.2423 66.0969C43.7415 66.1311 41.7031 66.0969 41.7031 66.0969C41.7031 66.0969 43.7243 65.9769 46.2423 65.9256C48.7603 65.8742 50.7815 65.8913 50.7815 65.9427Z" fill="#455A64"/>
<path d="M50.0989 67.2803C49.7341 67.3676 49.3606 67.4135 48.9855 67.4173C48.3003 67.4173 47.2726 67.5201 46.3134 67.5543C45.3542 67.5886 44.3093 67.5543 43.6241 67.5543C43.2539 67.5916 42.8809 67.5916 42.5107 67.5543H43.6241H46.3134H48.9855C49.3508 67.4406 49.7226 67.3491 50.0989 67.2803Z" fill="#455A64"/>
<path d="M33.8434 28.9795C33.6379 29.1337 32.8328 28.4143 32.0107 27.3865C31.1885 26.3588 30.7088 25.3311 30.8973 25.3311C31.0857 25.3311 31.9079 25.8792 32.7129 26.924C33.518 27.9689 34.0319 28.7568 33.8434 28.9795Z" fill="#71389A"/>
<path d="M44.3418 24.7502C43.7799 23.3623 43.4891 21.8796 43.4854 20.3823C43.1976 18.906 43.1976 17.3879 43.4854 15.9116C44.0647 17.3003 44.3561 18.7921 44.3418 20.2966C44.65 21.7651 44.65 23.2817 44.3418 24.7502Z" fill="#71389A"/>
<path d="M55.5915 23.5147C55.7971 23.6517 55.4716 24.5081 54.8721 25.3988C54.2726 26.2895 53.6217 26.9233 53.4162 26.7863C53.2106 26.6492 53.5361 25.8099 54.1356 24.9021C54.7351 23.9943 55.386 23.3776 55.5915 23.5147Z" fill="#71389A"/>
</svg>
